<?xml version="1.0" encoding="utf-8"?>
<!-- Generator: Adobe Illustrator 27.5.0, SVG Export Plug-In . SVG Version: 6.00 Build 0)  -->
<svg version="1.1" xmlns="http://www.w3.org/2000/svg" xmlns:xlink="http://www.w3.org/1999/xlink" x="0px" y="0px"
	 viewBox="0 0 640 480" style="enable-background:new 0 0 640 480;" xml:space="preserve">
<style type="text/css">
	.st0{fill:none;stroke:#FF0000;stroke-miterlimit:10;}
	.st1{fill:#FFFF00;}
	.st2{fill:#13AA50;}
	.st3{fill:none;stroke:#13AA50;stroke-miterlimit:10;}
	.st4{fill:#45B239;}
	.st5{fill:none;stroke:#45B239;stroke-miterlimit:10;}
	.st6{fill:#FFFFFF;}
	.st7{font-family:'Perpetua-BoldItalic';}
	.st8{font-size:18.4542px;}
	.st9{fill:none;}
	.st10{fill:#8B0700;}
	.st11{fill:none;stroke:#8B0700;stroke-miterlimit:10;}
	.st12{fill:#FFF800;}
	.st13{fill:none;stroke:#FFF800;stroke-miterlimit:10;}
	.st14{fill:#FBFF00;}
	.st15{fill:#FF0000;}
	.st16{fill:#088DF2;}
	.st17{font-family:'BookmanOldStyle-Italic';}
	.st18{font-size:16.1033px;}
</style>
<g id="Layer_1">
	<line class="st0" x1="153.73" y1="148.75" x2="152.63" y2="76.62"/>
	<line class="st0" x1="279.41" y1="74.43" x2="152.63" y2="76.62"/>
	<line class="st0" x1="278.86" y1="103.94" x2="279.41" y2="74.43"/>
	<g>
		<g>
			<path class="st1" d="M157.49,128.97c4.82-5.51,9.96-11.44,17.16-13.74c3.86-1.23,7.9-1.52,11.93-1.54
				c4.37-0.01,8.75,0.22,13.1,0.62c4.36,0.41,8.69,1.04,12.98,1.88c4.33,0.86,8.63,1.91,12.99,2.64c8.66,1.45,17.2,1.08,25.75-0.93
				c9.42-2.22,18.37-6.06,27.23-9.87c1.24-0.53,1.52-2.36,0.9-3.42c-0.75-1.28-2.17-1.43-3.42-0.9c-7.84,3.37-15.75,6.69-24.03,8.86
				c-8.26,2.17-16.65,2.85-25.1,1.44c-4.36-0.73-8.65-1.78-12.99-2.64c-4.41-0.87-8.87-1.52-13.35-1.97
				c-4.45-0.45-8.92-0.7-13.39-0.72c-4.16-0.02-8.4,0.24-12.44,1.28c-8.83,2.29-15.06,8.82-20.86,15.46c-0.89,1.02-1,2.54,0,3.54
				C154.86,129.87,156.59,129.99,157.49,128.97L157.49,128.97z"/>
		</g>
	</g>
	<g>
		<g>
			<path class="st2" d="M154.93,145.97c16.54,4.49,33.32-0.56,49.98-1.28c8.53-0.37,16.85,0.94,25.24,2.3
				c7.92,1.29,15.94,2.5,23.99,1.86c8.33-0.66,16.41-3.12,22.88-8.57c1.03-0.87,0.9-2.64,0-3.54c-1.02-1.02-2.5-0.87-3.54,0
				c-11.21,9.45-27.42,7.76-40.82,5.61c-8.35-1.34-16.72-2.87-25.22-2.74c-8.2,0.12-16.31,1.46-24.45,2.38
				c-8.9,1-18,1.53-26.73-0.84C153.15,140.3,151.83,145.12,154.93,145.97L154.93,145.97z"/>
		</g>
	</g>
	<g>
		<g>
			<path class="st2" d="M277.6,137.5c0.63-4.72,0.96-9.48,0.96-14.24c0-2.1-0.14-4.2-0.13-6.3c0.01-1.81,0.2-3.45,1.3-4.94
				c-1.55-0.42-3.11-0.84-4.66-1.26c-0.15,8.83-0.29,17.67-0.44,26.5c-0.05,3.22,4.95,3.22,5,0c0.15-8.83,0.29-17.67,0.44-26.5
				c0.02-1.09-0.79-2.12-1.84-2.41c-1.15-0.31-2.16,0.25-2.82,1.15c-2.69,3.65-1.89,8.55-1.85,12.78
				c0.05,5.09-0.28,10.18-0.96,15.23c-0.18,1.34,1.28,2.5,2.5,2.5C276.6,140,277.42,138.84,277.6,137.5L277.6,137.5z"/>
		</g>
	</g>
	<g>
		<g>
			<path class="st2" d="M163.78,135.1c-1.09,1.63-0.21,3.58,1.32,4.53c1.4,0.87,3.35,0.97,4.95,1.23c3.61,0.58,7.25,0.93,10.91,1.01
				c7.23,0.16,14.5-0.74,21.5-2.57c2.65-0.69,2.21-5.18-0.66-4.91c-9.8,0.91-19.96-1.54-29.18,2.93c-0.98,0.48-1.43,1.82-1.15,2.82
				c0.3,1.11,1.31,1.76,2.41,1.84c11.4,0.8,22.88,1.37,34.17-0.86c2.56-0.5,2.19-4.12,0-4.82c-12.74-4.05-26.3-5.45-39.59-4.04
				c-3.23,0.34-3.19,4.61,0,5c16.56,2,33.27,1.71,49.92,1.39c3.27-0.06,3.16-4.71,0-5c-3.73-0.34-7.51,0.07-11.08,1.17
				c-2.17,0.67-2.58,4.39,0,4.82c6.01,1.01,12.08,1.59,18.18,1.65c0-1.67,0-3.33,0-5c-2.82-0.01-5.64-0.02-8.46-0.02
				c-3.25-0.01-3.18,4.77,0,5c6.47,0.46,12.95,0.64,19.44,0.53c3.27-0.05,3.16-4.71,0-5c-1.83-0.17-3.65-0.33-5.48-0.5
				c0.22,1.64,0.44,3.27,0.66,4.91c4.02-0.99,8.1-1.56,12.24-1.65c4.14-0.09,8.2,0.05,12.2-1.22c3.71-1.18,7.13-3.11,10.35-5.26
				c2.98-1.99,6.48-4.02,8.6-6.98c1.24-1.74,1.68-3.88,1.43-5.98c-0.14-1.18-0.41-2.32-0.68-3.48c-0.09-0.4-0.11-1.48-0.36-1.74
				c0.03,0.03-0.09-0.32-0.02-0.16c0.05,0.12-0.56,0.66-0.06,0.25c-0.37,0.21-0.74,0.43-1.1,0.64c-0.09,0.01-0.17,0.02-0.26,0.03
				c-0.42-0.11-0.84-0.23-1.26-0.34c0.07,0.04,0.14,0.08,0.2,0.13c-0.38-0.94-0.77-1.88-1.15-2.82c-2.69,8.74-5.18,17.68-3.72,26.89
				c0.33,2.07,3.7,2.48,4.57,0.6c1.66-3.58,2.17-7.26,1.62-11.16c-0.28-1.98-2.95-2.24-4.18-1.1c-2.24,2.08-3.45,4.87-3.66,7.89
				c-0.13,1.96,2.2,3.03,3.76,2.16c3.29-1.83,5.29-5.24,5.45-8.97c0.09-1.99-2.16-2.98-3.76-2.16c-4.4,2.26-8.5,4.97-12.36,8.04
				c-1.66,1.31-0.41,3.55,1.1,4.18c2.41,1,5.28-0.22,6.53-2.42c1.07-1.89-0.7-4.26-2.82-3.67c-4.53,1.25-9.02,2.66-13.45,4.22
				c-2.14,0.76-2.6,4.28,0,4.82c4.19,0.87,8.45-0.88,10.68-4.56c0.81-1.34,0.07-3.31-1.49-3.67c-2.14-0.49-4.81-0.55-6.48,1.13
				c-2.16,2.15-1.16,5.65,1.35,7.03c2.34,1.28,5.54,0.59,8.02,0.03c2.6-0.59,4.82-1.81,6.39-4c0.98-1.36-0.08-3.24-1.49-3.67
				c-5.91-1.82-12.53,0.78-15.78,6c-1,1.61,0.29,3.79,2.16,3.76c5.16-0.08,10.23-1.71,14.38-4.79c1.59-1.18,1.69-4.04-0.6-4.57
				c-4.92-1.13-10.12-0.31-14.38,2.44c-1.8,1.16-1.52,3.95,0.6,4.57c3.22,0.94,6.55,1,9.83,0.27c2.85-0.64,2.06-4.78-0.66-4.91
				c-6.38-0.3-12.8,0.42-18.96,2.08c-2.24,0.6-2.52,4.4,0,4.82c4.7,0.79,9.37,0.76,14.06-0.12c2.82-0.53,2.1-4.91-0.66-4.91
				c-5.85,0-11.71,0-17.56,0c0,1.67,0,3.33,0,5c5.28-0.01,10.56-0.02,15.84-0.02c3.26-0.01,3.17-4.74,0-5
				c-6.83-0.57-13.68-0.64-20.52-0.22c-3.18,0.2-3.25,5,0,5c4.72,0,9.43,0,14.15,0c3.22,0,3.22-4.94,0-5
				c-5.93-0.11-11.86-0.04-17.78,0.2c-3.2,0.13-3.23,5,0,5c4.22,0,8.44,0.01,12.66,0.01c3.24,0,3.19-4.8,0-5
				c-6.55-0.42-13.12-0.83-19.59-1.99c-1.33-0.24-2.69,0.36-3.08,1.75c-0.33,1.21,0.41,2.84,1.75,3.08
				c6.91,1.24,13.92,1.72,20.92,2.16c0-1.67,0-3.33,0-5c-4.22,0-8.44-0.01-12.66-0.01c0,1.67,0,3.33,0,5
				c5.92-0.24,11.85-0.3,17.78-0.2c0-1.67,0-3.33,0-5c-4.72,0-9.43,0-14.15,0c0,1.67,0,3.33,0,5c6.84-0.42,13.69-0.34,20.52,0.22
				c0-1.67,0-3.33,0-5c-5.28,0.01-10.56,0.02-15.84,0.02c-3.22,0-3.22,5,0,5c5.85,0,11.71,0,17.56,0c-0.22-1.64-0.44-3.27-0.66-4.91
				c-3.75,0.7-7.64,0.75-11.4,0.12c0,1.61,0,3.21,0,4.82c5.77-1.56,11.67-2.18,17.63-1.9c-0.22-1.64-0.44-3.27-0.66-4.91
				c-2.4,0.54-4.81,0.42-7.17-0.27c0.2,1.52,0.4,3.05,0.6,4.57c3.14-2.03,6.87-2.78,10.53-1.94c-0.2-1.52-0.4-3.05-0.6-4.57
				c-3.48,2.59-7.51,4.05-11.85,4.11c0.72,1.25,1.44,2.51,2.16,3.76c2.1-3.37,6.37-4.85,10.13-3.7c-0.5-1.22-1-2.45-1.49-3.67
				c-1.19,1.65-4.03,1.91-5.87,2.12c-0.46,0.05-1.28-0.11-1.69,0.06c-0.13,0.05-0.24,0.54-0.34,0.82c-0.08,0.25-0.53,0.03,0.03,0.06
				c0.31,0.02,0.14-0.03,0.34-0.03c0.56-0.02,0.75,0.02,1.25,0.13c-0.5-1.22-1-2.45-1.49-3.67c-1.02,1.69-3.07,2.68-5.04,2.27
				c0,1.61,0,3.21,0,4.82c4.43-1.57,8.92-2.97,13.45-4.22c-0.94-1.22-1.88-2.45-2.82-3.67c-0.18,0.31-0.08,0.19-0.26,0.26
				c-0.16,0.07-0.18,0.04-0.07,0.05c-0.06,0-0.43-0.13-0.56-0.19c0.37,1.39,0.74,2.79,1.1,4.18c3.52-2.8,7.35-5.2,11.35-7.26
				c-1.25-0.72-2.51-1.44-3.76-2.16c-0.09,2-1.24,3.69-2.97,4.66c1.25,0.72,2.51,1.44,3.76,2.16c0.12-1.73,0.94-3.19,2.19-4.36
				c-1.39-0.37-2.79-0.74-4.18-1.1c0.34,2.45-0.08,5.07-1.12,7.31c1.52,0.2,3.05,0.4,4.57,0.6c-1.31-8.21,1.32-16.47,3.72-24.23
				c0.33-1.07-0.22-2.26-1.15-2.82c-1.98-1.22-4.2,0.15-4.82,2.19c-0.6,1.99,0.27,4.23,0.69,6.18c0.33,1.52,0.36,2.91-0.68,4.15
				c-1.06,1.27-2.54,2.2-3.87,3.14c-3.16,2.24-6.42,4.5-10.01,6c-3.82,1.6-7.61,1.73-11.69,1.75c-4.97,0.03-9.92,0.65-14.75,1.84
				c-2.89,0.71-2.01,4.67,0.66,4.91c1.83,0.17,3.65,0.33,5.48,0.5c0-1.67,0-3.33,0-5c-6.48,0.11-12.97-0.07-19.44-0.53
				c0,1.67,0,3.33,0,5c2.82,0.01,5.64,0.02,8.46,0.02c3.22,0.01,3.22-4.96,0-5c-5.65-0.06-11.28-0.54-16.85-1.47
				c0,1.61,0,3.21,0,4.82c3.2-0.99,6.42-1.3,9.75-0.99c0-1.67,0-3.33,0-5c-16.65,0.31-33.35,0.6-49.92-1.39c0,1.67,0,3.33,0,5
				c12.9-1.37,25.9-0.07,38.26,3.86c0-1.61,0-3.21,0-4.82c-10.81,2.13-21.92,1.45-32.84,0.68c0.42,1.55,0.84,3.11,1.26,4.66
				c3.97-1.92,8.44-2.19,12.78-2.18c4.63,0.02,9.26,0.37,13.88-0.06c-0.22-1.64-0.44-3.27-0.66-4.91
				c-5.61,1.47-11.33,2.28-17.13,2.39c-2.88,0.05-5.77-0.06-8.64-0.33c-1.33-0.13-2.65-0.29-3.97-0.5c-0.77-0.12-1.54-0.26-2.3-0.41
				c-0.31-0.06-0.61-0.13-0.92-0.18c-1.1-0.18,0.25-0.11,0.14,1.12c-0.11,0.42-0.23,0.84-0.34,1.26c0.04-0.07,0.09-0.13,0.13-0.2
				C169.89,134.94,165.56,132.44,163.78,135.1L163.78,135.1z"/>
		</g>
	</g>
	<g>
		<g>
			<path class="st2" d="M154.51,147.68c19.42,3.29,38.52-3.58,57.95-2.52c3.22,0.18,3.21-4.82,0-5c-18.92-1.04-37.75,5.9-56.62,2.7
				c-1.33-0.23-2.69,0.35-3.08,1.75C152.43,145.81,153.17,147.46,154.51,147.68L154.51,147.68z"/>
		</g>
	</g>
	<g>
		<g>
			<path class="st2" d="M213.94,144.6c0.51-0.03,1.02-0.01,1.53,0.06c-0.22-0.03-0.44-0.06-0.66-0.09c0.58,0.08,1.15,0.23,1.7,0.43
				c0.22-1.64,0.44-3.27,0.66-4.91c-1.33,0.01-2.66,0.03-3.99,0.04c-0.65,0.01-1.31,0.27-1.77,0.73c-0.43,0.43-0.76,1.15-0.73,1.77
				c0.03,0.65,0.24,1.32,0.73,1.77c0.49,0.45,1.09,0.74,1.77,0.73c1.33-0.01,2.66-0.03,3.99-0.04c0.62-0.01,1.34-0.27,1.77-0.73
				c0.13-0.17,0.26-0.34,0.39-0.51c0.18-0.29,0.28-0.6,0.3-0.93c0.06-0.22,0.06-0.44,0-0.66c-0.02-0.33-0.11-0.64-0.3-0.93
				c-0.13-0.17-0.26-0.34-0.39-0.51c-0.31-0.31-0.68-0.52-1.1-0.64c-0.53-0.2-1.07-0.34-1.62-0.42c-0.76-0.11-1.5-0.2-2.27-0.16
				c-0.66,0.04-1.29,0.25-1.77,0.73c-0.43,0.43-0.76,1.15-0.73,1.77c0.03,0.65,0.24,1.32,0.73,1.77
				C212.64,144.3,213.27,144.64,213.94,144.6L213.94,144.6z"/>
		</g>
	</g>
	<line class="st3" x1="153.95" y1="128.97" x2="153.73" y2="148.75"/>
</g>
<g id="Layer_2">
	<g>
		<g>
			<path class="st2" d="M161.69,137.89c11.29-0.16,22.58-0.48,33.86-0.96c3.2-0.14,3.23-4.94,0-5c-5.61-0.1-11.22,0.51-16.68,1.8
				c-2.81,0.66-2.1,4.83,0.66,4.91c17.32,0.49,34.66,0.55,51.98,0.17c4.89-0.11,9.78-0.25,14.67-0.43c3.21-0.12,3.22-4.9,0-5
				c-8.93-0.26-17.85,0.42-26.65,1.96c-2.86,0.5-2.06,4.84,0.66,4.91c17.47,0.46,34.89-1.22,52.26-2.91c3.16-0.31,3.27-4.84,0-5
				c-12.77-0.62-25.56,0.29-38.12,2.61c-2.75,0.51-2.15,5.14,0.66,4.91c9.99-0.8,19.87-2.68,29.44-5.68
				c2.74-0.86,2.14-4.73-0.66-4.91c-10-0.64-20.04,0.13-29.84,2.19c-2.73,0.57-2.16,5.12,0.66,4.91
				c11.79-0.86,23.46-2.98,34.78-6.37c2.78-0.83,2.11-4.71-0.66-4.91c-7-0.5-14.05,1.23-20.06,4.85c-1.06,0.64-1.52,1.98-1.02,3.12
				c0.54,1.22,1.68,1.64,2.95,1.45c6.9-1.06,13.5-3.88,19.03-8.14c1.92-1.48,1.39-4.52-1.26-4.66c-5.21-0.27-10.42,2.76-12.63,7.51
				c-0.83,1.79,0.58,4.46,2.82,3.67c4.31-1.52,7.92-4.4,10.22-8.37c0.87-1.5-0.21-3.97-2.16-3.76c-4.14,0.45-7.33,2.88-8.88,6.74
				c-0.98,2.44,2.52,4.03,4.18,2.43c1.53-1.48,2.96-3.05,4.3-4.7c-1.39-0.37-2.79-0.74-4.18-1.1c0.41,1,0.19,2.4,0.92,3.64
				c0.91,1.55,2.84,2.26,4.57,1.93c2.91-0.56,4.83-4.17,4.69-6.97c-0.14-2.72-2.9-4.55-5.39-3.2c-2.46,1.34-2.63,4.15-1.58,6.47
				c0.42,0.91,1.88,1.52,2.82,1.15c1.5-0.58,2.5-1.49,3.09-2.99c0.21-0.53,0.34-1.06,0.46-1.6c0.05-0.23,0.12-0.46,0.16-0.69
				c0.03-0.13,0.07-0.27,0.12-0.4c-0.2,0.35-0.2,0.4,0.01,0.15c0.6-0.36,1.15-1.29,1.59-1.83c0.56-0.69,1.1-1.41,1.63-2.13
				c1.06-1.44,2.05-2.93,3.04-4.42c1.05-1.57-0.33-3.82-2.16-3.76c-1.89,0.06-3.63,0.66-5.2,1.7c-1.44,0.95-2.72,2.15-4.27,2.94
				c-1.84,0.95-4.11,1.4-6.09,2c-2.32,0.7-4.65,1.35-7,1.93c-4.43,1.09-8.92,1.89-13.45,2.43c-3.9,0.46-7.95,0.87-11.85,0.16
				c-2.14-0.39-4.2-1.07-6.12-2.09c-1.07-0.57-2.2-1.65-3.36-1.97c-1.2-0.33-2.75-0.1-3.99-0.13c-3.22-0.1-3.21,4.87,0,5
				c0.78,0.03,1.57,0.06,2.35,0.1c0-1.67,0-3.33,0-5c-0.78,0.01-1.57-0.07-2.35-0.1c-3.22-0.14-3.2,4.84,0,5
				c2.5,0.13,4.96,0.73,7.22,1.8c1.22,0.58,2.7,0.34,3.42-0.9c0.64-1.09,0.33-2.84-0.9-3.42c-3.1-1.47-6.32-2.31-9.75-2.48
				c0,1.67,0,3.33,0,5c0.78,0.03,1.57,0.11,2.35,0.1c3.24-0.02,3.2-4.83,0-5c-0.78-0.04-1.57-0.07-2.35-0.1c0,1.67,0,3.33,0,5
				c1.11,0.03,2.21,0.05,3.32,0.05c-0.42-0.11-0.84-0.23-1.26-0.34c3.29,2.31,7.05,3.88,11.03,4.48c4.02,0.6,8,0.37,12.02-0.11
				c4.52-0.53,8.99-1.24,13.43-2.26c4.56-1.05,8.99-2.47,13.45-3.85c1.91-0.59,3.48-1.53,5.07-2.73c1.29-0.97,2.63-2.14,4.27-2.18
				c-0.72-1.25-1.44-2.51-2.16-3.76c-1.62,2.42-3.21,4.88-5.18,7.04c-0.91,1-1.49,1.85-1.8,3.18c-0.11,0.45-0.26,0.92-0.33,1.37
				c-0.06,0.38-0.12,0.13,0.21,0.01c0.94,0.38,1.88,0.77,2.82,1.15c0.19,0.42-0.31-0.48-0.03-0.18c0.03,0.19,0.04,0.17,0.03-0.06
				c-0.06,0.34-0.06,0.41-0.01,0.23c-0.01,0.08-0.01,0.14-0.22,0.36c0.32-0.34-0.44,0.33-0.05,0.05c-0.37,0.26-1.18,0.3-1.72-0.27
				c-0.04-0.04-0.49-0.93-0.3-0.47c-0.25-0.6-0.05,0.1-0.04,0.05c-0.04,0.28-0.29,0.9-0.51,1.27c-0.03,0.05-0.29,0.51-0.34,0.46
				c-0.13-0.14,1.13,0.14,0.52-0.07c0.2,0.07,0.3,0.48,0.45,0.57c-0.06-0.29-0.07-0.32-0.04-0.09c-0.01-0.09-0.02-0.18-0.03-0.27
				c-0.1-0.76-0.12-1.53-0.42-2.25c-0.63-1.53-2.86-2.74-4.18-1.1c-1.34,1.66-2.77,3.22-4.3,4.7c1.39,0.81,2.79,1.62,4.18,2.43
				c0.64-1.6,2.35-2.89,4.06-3.07c-0.72-1.25-1.44-2.51-2.16-3.76c-1.63,2.81-4.15,4.99-7.23,6.07c0.94,1.22,1.88,2.45,2.82,3.67
				c1.52-3.27,4.7-5.22,8.31-5.03c-0.42-1.55-0.84-3.11-1.26-4.66c-5.24,4.04-11.29,6.63-17.84,7.64c0.64,1.52,1.28,3.05,1.93,4.57
				c5.31-3.2,11.36-4.61,17.54-4.17c-0.22-1.64-0.44-3.27-0.66-4.91c-10.9,3.26-22.11,5.36-33.45,6.19
				c0.22,1.64,0.44,3.27,0.66,4.91c9.37-1.98,18.95-2.62,28.51-2.01c-0.22-1.64-0.44-3.27-0.66-4.91
				c-9.14,2.87-18.56,4.73-28.11,5.5c0.22,1.64,0.44,3.27,0.66,4.91c12.13-2.24,24.48-3.03,36.79-2.43c0-1.67,0-3.33,0-5
				c-17.37,1.7-34.79,3.37-52.26,2.91c0.22,1.64,0.44,3.27,0.66,4.91c8.36-1.46,16.84-2.03,25.32-1.78c0-1.67,0-3.33,0-5
				c-17.32,0.63-34.65,0.82-51.98,0.57c-4.89-0.07-9.78-0.18-14.67-0.32c0.22,1.64,0.44,3.27,0.66,4.91
				c5.05-1.19,10.17-1.71,15.35-1.62c0-1.67,0-3.33,0-5c-11.28,0.48-22.57,0.8-33.86,0.96
				C158.47,132.94,158.46,137.94,161.69,137.89L161.69,137.89z"/>
		</g>
	</g>
	<g>
		<g>
			<path class="st2" d="M162.47,138.5c3.34-0.8,6.68-1.6,10.02-2.41c1.21-0.29,1.95-1.56,1.79-2.74c-0.17-1.27-1.2-2.09-2.46-2.17
				c-3.73-0.22-7.48,0.09-11.13,0.85c-1.28,0.27-2.14,1.85-1.75,3.08c0.44,1.36,1.7,2.03,3.08,1.75c0.85-0.18,1.72-0.37,2.59-0.45
				c-0.64,0.06,0.04,0,0.14-0.01c0.2-0.02,0.4-0.05,0.6-0.07c0.44-0.05,0.87-0.08,1.31-0.11c1.72-0.12,3.44-0.12,5.16-0.02
				c-0.22-1.64-0.44-3.27-0.66-4.91c-3.34,0.8-6.68,1.6-10.02,2.41c-1.27,0.31-2.15,1.82-1.75,3.08
				C159.82,138.08,161.1,138.83,162.47,138.5L162.47,138.5z"/>
		</g>
	</g>
	<g>
		<g>
			<path class="st2" d="M162.19,142.47c3.13,0.13,6.27,0.15,9.4,0.08c3.21-0.07,3.23-5.01,0-5c-2.41,0.01-4.81,0.02-7.22,0.03
				c-3.22,0.01-3.22,4.98,0,5c5.85,0.04,11.69-0.55,17.41-1.72c1.2-0.25,1.96-1.59,1.79-2.74c-0.19-1.28-1.18-2.07-2.46-2.17
				c-6.42-0.5-12.83-1-19.25-1.5c-1.35-0.11-2.5,1.22-2.5,2.5c0,1.44,1.15,2.39,2.5,2.5c6.42,0.5,12.83,1,19.25,1.5
				c-0.22-1.64-0.44-3.27-0.66-4.91c-5.3,1.09-10.68,1.59-16.08,1.54c0,1.67,0,3.33,0,5c2.41-0.01,4.81-0.02,7.22-0.03
				c0-1.67,0-3.33,0-5c-3.14,0.07-6.27,0.04-9.4-0.08c-1.35-0.05-2.5,1.19-2.5,2.5C159.69,141.37,160.84,142.42,162.19,142.47
				L162.19,142.47z"/>
		</g>
	</g>
	<g>
		<g>
			<path class="st2" d="M272.76,113.17c-7.94,1.27-15.62,3.66-23.44,5.47c-7.6,1.76-15.73,3.12-23.49,1.62
				c-7.86-1.52-15.39-4.39-23.27-5.82c-3.98-0.72-7.9-0.89-11.93-0.97c-3.96-0.08-7.89-0.2-11.81,0.47
				c-4.54,0.78-8.31,3.06-12.28,5.27c-3.71,2.06-7.33,4.34-10.06,7.64c-0.86,1.04-1.02,2.52,0,3.54c0.89,0.89,2.67,1.05,3.54,0
				c2.31-2.79,5.21-4.7,8.34-6.46c3.33-1.87,6.54-3.98,10.3-4.86c3.64-0.85,7.41-0.7,11.12-0.62c3.78,0.09,7.5,0.11,11.24,0.77
				c7.73,1.37,15.12,4.16,22.8,5.72c8.04,1.63,16.23,0.78,24.19-0.9c8.73-1.84,17.25-4.65,26.08-6.06c1.33-0.21,2.08-1.88,1.75-3.08
				C275.45,113.49,274.1,112.95,272.76,113.17L272.76,113.17z"/>
		</g>
	</g>
	<g>
		<g>
			<path class="st2" d="M159.19,132.81c6.8,0.45,13.48,1.8,19.95,3.94c0-1.61,0-3.21,0-4.82c-2.02,0.49-4.01,0.74-6.09,0.76
				c0.22,1.64,0.44,3.27,0.66,4.91c3.32-0.5,6.72-0.28,9.98,0.51c0-1.61,0-3.21,0-4.82c-4.21,0.94-8.47,1.43-12.79,1.47
				c-3.25,0.04-3.17,4.75,0,5c3.17,0.25,6.33,0.49,9.5,0.74c-0.22-1.64-0.44-3.27-0.66-4.91c-2.49,0.85-5.02,1.36-7.65,1.47
				c-2.51,0.1-3.36,3.3-1.26,4.66c1.73,1.12,3.76,1.67,5.83,1.58c3.2-0.14,3.22-5.14,0-5c-1.26,0.06-2.24-0.21-3.31-0.9
				c-0.42,1.55-0.84,3.11-1.26,4.66c3.06-0.12,6.08-0.66,8.98-1.65c2.72-0.93,2.16-4.69-0.66-4.91c-3.17-0.25-6.33-0.49-9.5-0.74
				c0,1.67,0,3.33,0,5c4.75-0.05,9.48-0.62,14.12-1.65c2.41-0.54,2.36-4.25,0-4.82c-4.19-1.02-8.39-1.15-12.64-0.51
				c-2.82,0.42-2.09,4.94,0.66,4.91c2.5-0.03,4.99-0.34,7.42-0.94c2.51-0.61,2.24-4.08,0-4.82c-6.89-2.28-14.04-3.64-21.28-4.12
				c-1.35-0.09-2.5,1.21-2.5,2.5C156.69,131.74,157.84,132.72,159.19,132.81L159.19,132.81z"/>
		</g>
	</g>
	<g>
		<g>
			<path class="st2" d="M259.13,124.02c-5.94-0.18-11.85,0.28-17.71,1.24c-4.74,0.77-9.57,1.94-13.09,5.42
				c-1.3,1.28-0.75,3.75,1.1,4.18c6.41,1.48,12.66-0.5,18.69-2.58c5.25-1.81,10.26-4,13.69-8.54c1.26-1.66-0.5-3.61-2.16-3.76
				c-9.08-0.81-18.2,2.39-24.94,8.47c-1.65,1.49-0.31,4.25,1.77,4.27c10.63,0.1,21.19-2.77,30.29-8.27c2.1-1.27,1.25-4.66-1.26-4.66
				c-7.93,0.02-15.59,1.39-23.29,3.11c-2.8,0.62-5.56,1.37-8.19,2.53c-2.36,1.04-4.76,2.67-5.48,5.29
				c-0.45,1.64,0.81,3.07,2.41,3.16c13.64,0.78,27.44-1.47,40.11-6.58c1.15-0.47,1.99-1.42,1.79-2.74
				c-0.18-1.17-1.19-2.23-2.46-2.17c-16.75,0.85-33.42,3.2-49.74,7.02c-2.79,0.66-2.11,4.86,0.66,4.91
				c10.16,0.2,20.33-1.16,30.08-4.01c2.67-0.78,2.21-4.94-0.66-4.91c-10.34,0.11-20.64,1.9-30.39,5.35
				c-2.6,0.92-2.26,4.86,0.66,4.91c10.01,0.19,19.89-1.99,28.95-6.22c0.99-0.46,1.42-1.83,1.15-2.82c-0.31-1.13-1.3-1.73-2.41-1.84
				c-12.55-1.16-25.18,1.07-36.66,6.22c-1.88,0.84-1.48,4.26,0.6,4.57c10.04,1.5,20.02-0.67,29.01-5.27
				c2.37-1.21,1.03-4.5-1.26-4.66c-10.21-0.72-20.54,0.52-30.3,3.62c-2.7,0.86-2.18,4.8,0.66,4.91c10.13,0.41,20.3-0.72,30.11-3.29
				c2.78-0.73,2.12-4.81-0.66-4.91c-12.29-0.44-24.62,0.86-36.55,3.8c-1.2,0.29-1.97,1.56-1.79,2.74c0.2,1.31,1.18,2.03,2.46,2.17
				c7.69,0.83,15.41-0.58,22.41-3.82c0.99-0.46,1.42-1.83,1.15-2.82c-0.3-1.11-1.31-1.76-2.41-1.84c-9.33-0.62-19.3-0.98-27.55,4.14
				c-1.73,1.07-1.59,4.1,0.6,4.57c7.35,1.58,15.74,0.73,22.11-3.49c1.78-1.18,3.91-2.77,2.9-5.19c-0.76-1.82-2.84-2.64-4.69-2.7
				c-3.9-0.13-7.9,0.04-11.78,0.55c-4.69,0.62-9.29,1.93-13.24,4.62c-2.18,1.48-1.17,4.34,1.26,4.66
				c8.89,1.16,18.06-0.83,25.75-5.43c2.25-1.35,1.12-4.45-1.26-4.66c-11.16-0.96-22.41,1.25-32.46,6.16
				c-1.11,0.54-1.49,2.06-1.02,3.12c0.53,1.21,1.69,1.67,2.95,1.45c4.65-0.81,9.42-0.6,14.1-1.19c5.27-0.66,10.19-2.17,14.28-5.68
				c1.74-1.49,0.24-4.18-1.77-4.27c-1.55-0.07-3.42,0.03-4.6,1.2c-1.16,1.14-1.22,2.99-0.1,4.19c2.18,2.32,5.49,0.64,6.86-1.62
				c1.03-1.7-0.32-3.66-2.16-3.76c-6.21-0.34-12.41,0.22-18.49,1.51c-4.72,1-9.87,2.46-12.99,6.41c-1.01,1.28-0.97,3.86,1.1,4.18
				c10.74,1.64,21.64-0.03,31.35-4.94c1.83-0.92,1.52-4.21-0.6-4.57c-11.17-1.91-22.46,0.14-33.15,3.51
				c-2.81,0.89-2.07,4.62,0.66,4.91c8.09,0.86,16.37-1.03,23.35-5.21c2.19-1.31,1.18-4.54-1.26-4.66
				c-10.62-0.5-21.34,1.25-31.23,5.17c-1.16,0.46-1.99,1.43-1.79,2.74c0.19,1.24,1.18,2.14,2.46,2.17
				c11.07,0.26,22.18-1.64,32.51-5.64c2.05-0.79,2.44-3.29,0.6-4.57c-2.04-1.42-4.81-1.45-7.19-1.22c-2.66,0.27-5.27,0.85-7.87,1.47
				c-2.83,0.67-5.7,1.16-8.5,1.95c-3.54,1-6.99,2.35-10.22,4.13c-2.11,1.16-1.24,4.83,1.26,4.66c11.66-0.78,23-4.06,33.26-9.66
				c2.22-1.21,1.16-4.63-1.26-4.66c-10.25-0.11-20.36,2.22-29.56,6.71c-2.31,1.13-1.09,4.63,1.26,4.66
				c9.74,0.12,19.48-1.51,28.63-4.83c2.62-0.95,2.24-4.78-0.66-4.91c-7.2-0.33-14.32,1.2-20.81,4.32c-2,0.96-1.36,4.02,0.6,4.57
				c8.88,2.49,19.16,0.75,26.85-4.3c1.63-1.07,1.66-4.16-0.6-4.57c-6.65-1.2-13.47-0.74-19.84,1.54c-2.75,0.98-2.13,4.59,0.66,4.91
				c6.99,0.8,14.16-0.14,20.71-2.7c2.58-1.01,2.27-4.74-0.66-4.91c-9.18-0.54-18.38-0.21-27.5,0.98c-1.34,0.17-2.5,1.02-2.5,2.5
				c0,1.31,1.14,2.56,2.5,2.5c4.92-0.2,9.78-1.14,14.4-2.87c2.64-0.98,2.23-4.71-0.66-4.91c-5.67-0.38-11.31,0.9-16.32,3.56
				c-0.97,0.51-1.43,1.79-1.15,2.82c0.31,1.14,1.3,1.71,2.41,1.84c7.73,0.85,15.64-0.17,22.91-2.93c1.16-0.44,1.99-1.44,1.79-2.74
				c-0.18-1.2-1.19-2.18-2.46-2.17c-6.54,0.07-13.04,1.33-19.1,3.81c-2.68,1.09-2.18,4.54,0.66,4.91
				c5.24,0.68,10.69-0.62,15.08-3.56c2.16-1.44,1.19-4.41-1.26-4.66c-7.45-0.75-14.91,0.63-21.69,3.77
				c-0.99,0.46-1.42,1.83-1.15,2.82c0.3,1.11,1.31,1.76,2.41,1.84c6.44,0.43,12.76-1.88,17.55-6.16c1.74-1.55,0.24-4.12-1.77-4.27
				c-8.52-0.64-18.16-0.47-25.1,5.17c-1.05,0.85-0.88,2.66,0,3.54c0.32,0.32,0.63,0.66,0.97,0.97c0.95,0.85,1.97,0.79,3.16,0.74
				c2.25-0.08,4.5-0.37,6.71-0.82c4.22-0.86,8.24-2.44,12.15-4.23c2.37-1.08,1.04-4.61-1.26-4.66c-7.45-0.14-14.79,1.64-21.37,5.1
				c-2.26,1.19-1.12,4.61,1.26,4.66c7.97,0.15,15.84-1.78,22.88-5.52c2.2-1.17,1.17-4.7-1.26-4.66c-8.81,0.16-17.82,1.92-25.23,6.9
				c-1.7,1.14-1.61,4.03,0.6,4.57c5.93,1.44,12.39,0.27,17.3-3.41c1.58-1.18,1.7-4.05-0.6-4.57c-7.47-1.67-15.16-0.78-22.07,2.51
				c-2.01,0.96-1.34,4.02,0.6,4.57c5.75,1.64,12.19-0.15,16.21-4.6c1.53-1.7,0.38-4.05-1.77-4.27c-6.43-0.64-13.82-0.19-18.25,5.18
				c-1.26,1.52-0.74,3.48,1.1,4.18c6,2.28,12.71-0.15,17.61-3.81c0.82-0.61,1.36-1.41,1.19-2.49c-0.13-0.88-0.82-1.94-1.79-2.08
				c-8.08-1.16-16.21,0.23-23.36,4.2c-0.96,0.54-1.44,1.77-1.15,2.82c0.31,1.13,1.3,1.73,2.41,1.84c5.69,0.57,11.5-0.28,16.79-2.45
				c1.15-0.47,1.99-1.42,1.79-2.74c-0.17-1.12-1.2-2.31-2.46-2.17c-5.24,0.58-10.23,2.24-14.65,5.15c-2.02,1.33-1.31,4.65,1.26,4.66
				c3.76,0.02,7.41-0.95,10.69-2.79c0.96-0.54,1.44-1.77,1.15-2.82c-0.31-1.14-1.3-1.71-2.41-1.84c-4.79-0.54-9.49,0.32-13.89,2.24
				c-1.97,0.86-1.4,4.15,0.6,4.57c3.24,0.69,6.62,0.14,9.33-1.82c1.72-1.25,1.57-3.89-0.6-4.57c-3.34-1.05-6.88-0.14-9.43,2.21
				c-1.32,1.22-0.73,3.82,1.1,4.18c4.24,0.82,8.53,0.67,12.68-0.59c2.64-0.8,2.23-4.97-0.66-4.91c-3.57,0.07-7.11,0.67-10.49,1.82
				c-3.09,1.05-1.82,5.35,1.33,4.82c2.45-0.41,4.9-0.82,7.34-1.23c2.76-0.46,2.14-5.11-0.66-4.91c-2.92,0.21-5.84,0.41-8.76,0.62
				c-1.35,0.1-2.5,1.08-2.5,2.5c0,1.28,1.15,2.6,2.5,2.5c2.92-0.21,5.84-0.41,8.76-0.62c-0.22-1.64-0.44-3.27-0.66-4.91
				c-2.45,0.41-4.9,0.82-7.34,1.23c0.44,1.61,0.89,3.21,1.33,4.82c2.98-1.01,6.02-1.58,9.17-1.64c-0.22-1.64-0.44-3.27-0.66-4.91
				c-3.26,0.99-6.66,1.24-10.02,0.59c0.37,1.39,0.74,2.79,1.1,4.18c1.28-1.17,2.95-1.43,4.57-0.92c-0.2-1.52-0.4-3.05-0.6-4.57
				c-1.62,1.17-3.49,1.74-5.48,1.32c0.2,1.52,0.4,3.05,0.6,4.57c3.58-1.56,7.51-1.99,11.36-1.56c-0.42-1.55-0.84-3.11-1.26-4.66
				c-2.52,1.42-5.27,2.12-8.16,2.11c0.42,1.55,0.84,3.11,1.26,4.66c3.65-2.4,7.78-3.99,12.13-4.47c-0.22-1.64-0.44-3.27-0.66-4.91
				c-4.94,2.02-10.15,2.8-15.46,2.27c0.42,1.55,0.84,3.11,1.26,4.66c5.88-3.27,12.83-4.66,19.51-3.7c-0.2-1.52-0.4-3.05-0.6-4.57
				c-3.91,2.92-8.91,5.14-13.76,3.3c0.37,1.39,0.74,2.79,1.1,4.18c3.6-4.35,9.57-4.22,14.72-3.71c-0.59-1.42-1.18-2.85-1.77-4.27
				c-2.86,3.17-7.22,4.49-11.34,3.31c0.2,1.52,0.4,3.05,0.6,4.57c5.64-2.68,12.13-3.36,18.21-2c-0.2-1.52-0.4-3.05-0.6-4.57
				c-3.87,2.89-8.72,4.05-13.44,2.9c0.2,1.52,0.4,3.05,0.6,4.57c6.72-4.51,14.73-6.07,22.71-6.22c-0.42-1.55-0.84-3.11-1.26-4.66
				c-6.27,3.33-13.26,4.97-20.35,4.83c0.42,1.55,0.84,3.11,1.26,4.66c5.82-3.06,12.28-4.54,18.85-4.42
				c-0.42-1.55-0.84-3.11-1.26-4.66c-5.61,2.56-11.48,4.35-17.69,4.39c0.59,0.24,1.18,0.49,1.77,0.73c-0.33-0.33-0.67-0.67-1-1
				c0,1.18,0,2.36,0,3.54c2.76-2.24,6.49-3.21,9.95-3.64c3.85-0.48,7.76-0.35,11.62-0.07c-0.59-1.42-1.18-2.85-1.77-4.27
				c-3.84,3.43-8.91,5.04-14.02,4.69c0.42,1.55,0.84,3.11,1.26,4.66c5.99-2.77,12.62-3.75,19.17-3.09
				c-0.42-1.55-0.84-3.11-1.26-4.66c-3.75,2.51-8.09,3.45-12.56,2.87c0.22,1.64,0.44,3.27,0.66,4.91
				c5.67-2.31,11.65-3.57,17.77-3.63c-0.22-1.64-0.44-3.27-0.66-4.91c-6.91,2.63-14.22,3.57-21.58,2.76
				c0.42,1.55,0.84,3.11,1.26,4.66c4.26-2.26,9-3.2,13.8-2.87c-0.22-1.64-0.44-3.27-0.66-4.91c-4.21,1.57-8.58,2.5-13.07,2.69
				c0,1.67,0,3.33,0,5c9.12-1.19,18.32-1.52,27.5-0.98c-0.22-1.64-0.44-3.27-0.66-4.91c-6.2,2.43-12.76,3.28-19.38,2.52
				c0.22,1.64,0.44,3.27,0.66,4.91c5.51-1.97,11.41-2.57,17.18-1.54c-0.2-1.52-0.4-3.05-0.6-4.57c-6.62,4.35-15.33,5.95-22.99,3.8
				c0.2,1.52,0.4,3.05,0.6,4.57c5.7-2.74,11.98-3.93,18.29-3.63c-0.22-1.64-0.44-3.27-0.66-4.91c-8.77,3.18-17.97,4.77-27.3,4.65
				c0.42,1.55,0.84,3.11,1.26,4.66c8.41-4.1,17.69-6.13,27.04-6.03c-0.42-1.55-0.84-3.11-1.26-4.66
				c-9.46,5.16-19.98,8.25-30.74,8.97c0.42,1.55,0.84,3.11,1.26,4.66c5.35-2.94,11.1-4.08,16.98-5.44c2.13-0.5,4.27-1.05,6.44-1.34
				c1.14-0.16,2.3-0.22,3.45-0.15c0.65,0.04,1.31,0.22,1.87,0.61c0.2-1.52,0.4-3.05,0.6-4.57c-9.95,3.86-20.51,5.72-31.18,5.47
				c0.22,1.64,0.44,3.27,0.66,4.91c9.52-3.77,19.67-5.47,29.9-4.99c-0.42-1.55-0.84-3.11-1.26-4.66c-6.29,3.77-13.54,5.3-20.82,4.53
				c0.22,1.64,0.44,3.27,0.66,4.91c9.76-3.08,20.25-5.26,30.49-3.51c-0.2-1.52-0.4-3.05-0.6-4.57c-8.4,4.26-18.17,5.86-27.5,4.44
				c0.37,1.39,0.74,2.79,1.1,4.18c2.69-3.41,7.08-4.35,11.13-5.2c5.54-1.16,11.17-1.57,16.82-1.26c-0.72-1.25-1.44-2.51-2.16-3.76
				c-0.24,0.39,0.07,0.03-0.29,0.38c-0.01,0.01,0-0.02,0.09-0.06c-0.04,0.02,0.47-0.1,0.22-0.08c0.35-0.03,0.41-0.03,0.69,0.17
				c0.82,0.6,1.26,1.74,0.65,2.74c-0.24,0.39-0.55,0.44-0.83,0.7c0.06-0.06,0.64-0.14,0.26-0.09c0.45-0.06,0.93-0.03,1.38-0.01
				c-0.59-1.42-1.18-2.85-1.77-4.27c-7.08,6.07-17.65,4.11-26.18,5.58c0.64,1.52,1.28,3.05,1.93,4.57
				c9.28-4.53,19.67-6.36,29.94-5.47c-0.42-1.55-0.84-3.11-1.26-4.66c-7,4.19-15.14,5.8-23.22,4.75c0.42,1.55,0.84,3.11,1.26,4.66
				c3.55-2.41,7.68-3.62,11.92-4.09c2.14-0.24,4.29-0.33,6.43-0.37c1.12-0.02,2.24-0.03,3.36-0.03c0.26,0,0.52,0,0.78,0
				c0.6,0.01-0.3-0.09,0.14,0c0.06,0.01,0.15,0.07,0.19,0.06c0.13,0.08,0.16,0.1,0.08,0.03c-0.4-0.34-0.55-0.83-0.46-1.47
				c0.21-0.37,0.43-0.74,0.64-1.1c-1,1.26-3.02,2.15-4.47,2.77c-1.6,0.68-3.31,1.14-5.01,1.45c-3.31,0.61-6.81,0.54-10.1-0.17
				c0.2,1.52,0.4,3.05,0.6,4.57c7.47-4.64,16.61-4.02,25.03-3.46c-0.42-1.55-0.84-3.11-1.26-4.66c-6.21,2.88-13.1,3.87-19.88,3.14
				c0.22,1.64,0.44,3.27,0.66,4.91c11.53-2.84,23.36-4.05,35.22-3.62c-0.22-1.64-0.44-3.27-0.66-4.91
				c-9.4,2.47-19.07,3.5-28.78,3.11c0.22,1.64,0.44,3.27,0.66,4.91c9.38-2.98,19.16-4.13,28.97-3.44c-0.42-1.55-0.84-3.11-1.26-4.66
				c-7.67,3.92-16.54,6.05-25.15,4.76c0.2,1.52,0.4,3.05,0.6,4.57c10.67-4.78,22.51-6.61,34.14-5.53c-0.42-1.55-0.84-3.11-1.26-4.66
				c-8.25,3.86-17.33,5.71-26.42,5.54c0.22,1.64,0.44,3.27,0.66,4.91c9.36-3.31,19.14-5.07,29.06-5.17
				c-0.22-1.64-0.44-3.27-0.66-4.91c-9.35,2.73-19.01,4.02-28.75,3.83c0.22,1.64,0.44,3.27,0.66,4.91
				c15.9-3.73,32.1-6.02,48.41-6.84c-0.22-1.64-0.44-3.27-0.66-4.91c-12.31,4.97-25.53,7.16-38.78,6.41
				c0.8,1.05,1.61,2.11,2.41,3.16c0.03-0.12,0.07-0.24,0.11-0.36c-0.12,0.27-0.13,0.33-0.05,0.16c0.05-0.09,0.1-0.17,0.15-0.25
				c-0.19,0.23-0.2,0.24-0.01,0.02c0.15-0.16,0.3-0.31,0.46-0.46c0.39-0.37-0.2,0.11,0.23-0.18c0.9-0.62,1.95-1.11,2.75-1.42
				c2.36-0.9,4.84-1.48,7.3-2.02c2.88-0.63,5.76-1.31,8.67-1.79c4.14-0.67,8.34-0.97,12.53-0.97c-0.42-1.55-0.84-3.11-1.26-4.66
				c-8.38,5.06-17.98,7.68-27.77,7.59c0.59,1.42,1.18,2.85,1.77,4.27c5.82-5.24,13.64-7.7,21.41-7.01
				c-0.72-1.25-1.44-2.51-2.16-3.76c-2.63,3.48-7.14,5.02-11.1,6.38c-4.97,1.7-10.34,3.67-15.64,2.44c0.37,1.39,0.74,2.79,1.1,4.18
				c2.95-2.92,7.32-3.56,11.24-4.2c5.3-0.85,10.66-1.16,16.02-1C262.35,129.11,262.34,124.11,259.13,124.02L259.13,124.02z"/>
		</g>
	</g>
	<g>
		<g>
			<path class="st2" d="M165.91,144.35c4.23,0.41,8.47,0.4,12.7-0.04c1.34-0.14,2.5-1.05,2.5-2.5c0-1.35-1.14-2.5-2.5-2.5
				c-2.88,0.01-5.65-0.4-8.41-1.21c0.2,1.52,0.4,3.05,0.6,4.57c2.15-0.98,3.99-2.77,5.04-4.89c0.99-2,0.91-4.05,1.35-6.1
				c0.04-0.16,0.37-0.87,0.14-0.62c-0.02,0.03,0.74-0.33,0.96-0.44c1.28-0.67,2.05-1.86,2.19-3.28c0.11-1.1-0.23-2.14-0.4-3.21
				c-0.02-0.14-0.04-0.69-0.05-0.62c-0.01,0.1-0.09,0.08-0.12,0.14c0.11-0.22,0.16-0.18,0.37-0.3c1.53-0.86,4.2-0.53,6.07-0.55
				c2.84-0.02,5.67,0.04,8.5,0.35c5.46,0.61,10.72,2.39,16.15,3.15c6.24,0.87,12.61,0.82,18.78,2.15c0.22-1.64,0.44-3.27,0.66-4.91
				c-10.35,0.51-20.77-1.32-30.26-5.55c-0.42,1.55-0.84,3.11-1.26,4.66c5.59-0.65,11.22-0.67,16.81-0.07c1.34,0.15,2.5-1.25,2.5-2.5
				c0-1.47-1.15-2.35-2.5-2.5c-5.59-0.61-11.22-0.59-16.81,0.07c-1.11,0.13-2.1,0.69-2.41,1.84c-0.27,0.98,0.15,2.38,1.15,2.82
				c10.3,4.59,21.51,6.79,32.78,6.23c2.69-0.13,3.55-4.29,0.66-4.91c-5.79-1.25-11.71-1.35-17.57-2.01
				c-5.62-0.63-11.02-2.39-16.61-3.2c-3.03-0.44-6.06-0.62-9.12-0.63c-2.54-0.01-5.22-0.16-7.73,0.37c-2.15,0.46-4.26,1.77-4.87,4
				c-0.33,1.2-0.13,2.43,0.12,3.62c0.06,0.3,0.11,0.96,0.19,1.11c0,0.05,0,0.1,0,0.15c-0.02-0.28,0.08-0.5,0.29-0.67
				c0.29-0.26,0.22-0.27-0.21-0.03c-0.26,0.08-0.5,0.19-0.73,0.33c-2.5,1.41-2.56,4.25-2.87,6.76c-0.28,2.28-1.66,3.97-3.72,4.91
				c-2.05,0.93-1.31,4.01,0.6,4.57c3.16,0.93,6.44,1.4,9.73,1.39c0-1.67,0-3.33,0-5c-4.23,0.44-8.47,0.45-12.7,0.04
				c-1.35-0.13-2.5,1.24-2.5,2.5C163.41,143.31,164.56,144.22,165.91,144.35L165.91,144.35z"/>
		</g>
	</g>
	<g>
		<g>
			<path class="st2" d="M223.64,125.48c2.25-0.13,4.49-0.25,6.74-0.38c0.66-0.04,1.29-0.25,1.77-0.73c0.43-0.43,0.76-1.15,0.73-1.77
				c-0.03-0.65-0.24-1.32-0.73-1.77c-0.17-0.13-0.34-0.26-0.51-0.39c-0.39-0.23-0.81-0.34-1.26-0.34c-1.77-0.22-3.54-0.43-5.31-0.65
				c0,1.67,0,3.33,0,5c1.31-0.01,2.63-0.01,3.94-0.02c1.31-0.01,2.56-1.15,2.5-2.5c-0.06-1.35-1.1-2.5-2.5-2.5
				c-0.17,0-0.35,0-0.52,0c-1.31,0-2.56,1.15-2.5,2.5c0.06,1.35,1.1,2.5,2.5,2.5c0.17,0,0.35,0,0.52,0c0-1.67,0-3.33,0-5
				c-1.31,0.01-2.63,0.01-3.94,0.02c-1.31,0.01-2.56,1.15-2.5,2.5c0.03,0.65,0.24,1.32,0.73,1.77c0.17,0.13,0.34,0.26,0.51,0.39
				c0.39,0.23,0.81,0.34,1.26,0.34c1.77,0.22,3.54,0.43,5.31,0.65c0-1.67,0-3.33,0-5c-2.25,0.13-4.49,0.25-6.74,0.38
				c-0.66,0.04-1.29,0.25-1.77,0.73c-0.43,0.43-0.76,1.15-0.73,1.77C221.2,124.28,222.24,125.56,223.64,125.48L223.64,125.48z"/>
		</g>
	</g>
	<g>
		<g>
			<path class="st4" d="M155.89,130.89c1.97,3.21,1.7,7.27,3.58,10.57c1.88,3.31,5.27,5.24,8.66,6.69c4.05,1.73,8.22,3.5,12.72,2.84
				c1.99-0.29,3.7-0.81,5.74-0.52c2.37,0.34,4.61,0.62,7.01,0.43c2.22-0.17,4.42-0.49,6.65-0.54c2.19-0.04,4.38,0.09,6.57,0.28
				c4.27,0.36,8.55,0.92,12.84,0.75c2.13-0.09,4.28-0.34,6.35-0.86c2.02-0.5,3.73-1.25,5.84-1.27c4.64-0.04,9.29-0.04,13.93-0.06
				c4.29-0.02,9.34,0,12.59-3.29c2.84-2.88,3.63-7.79,0.62-10.83c-2.04-2.07-5.22,0.55-3.93,3.03c1.18,2.26,2.35,4.51,3.53,6.77
				c1.49,2.85,5.81,0.33,4.32-2.52c-1.18-2.26-2.35-4.51-3.53-6.77c-1.31,1.01-2.62,2.02-3.93,3.03c0.59,0.6,0.63,1.32,0.28,2.31
				c-0.39,1.1-1.2,1.87-2.27,2.37c-3.13,1.46-7.28,0.9-10.62,0.92c-4.15,0.02-8.4-0.24-12.54,0.1c-1.98,0.16-3.72,0.92-5.62,1.4
				c-1.72,0.43-3.47,0.63-5.25,0.69c-3.92,0.13-7.82-0.33-11.71-0.68c-4.01-0.36-7.93-0.45-11.94-0.03
				c-2.04,0.21-4.12,0.45-6.17,0.22c-2.04-0.23-4-0.74-6.06-0.48c-1.88,0.24-3.68,0.88-5.6,0.7c-1.88-0.17-3.71-0.88-5.44-1.56
				c-2.98-1.17-6.73-2.46-8.52-5.31c-0.97-1.55-1.29-3.39-1.68-5.15c-0.45-2-1.01-3.98-2.09-5.75
				C158.53,125.62,154.2,128.13,155.89,130.89L155.89,130.89z"/>
		</g>
	</g>
	<g>
		<g>
			<path class="st4" d="M277.61,112.08c-3.39,2.29-5.02,6.01-5.82,9.91c-0.92,4.51-1.26,9.15-1.26,13.75c0,1.75,0.09,3.79-1.22,5.13
				c-1.27,1.29-3.11,1.84-4.83,2.22c-4.5,1.01-9.33,0.87-13.92,1.11c-5.63,0.3-11.25,0.59-16.88,0.89c-3.2,0.17-3.22,5.17,0,5
				c5.05-0.27,10.09-0.53,15.14-0.8c4.96-0.26,10.01-0.29,14.93-1.01c4.23-0.62,8.99-2.25,10.83-6.47c0.93-2.13,0.93-4.43,0.94-6.71
				c0-2.38,0.12-4.75,0.38-7.12c0.4-3.7,0.81-9.27,4.23-11.59C282.78,114.61,280.28,110.27,277.61,112.08L277.61,112.08z"/>
		</g>
	</g>
	<g>
		<g>
			<path class="st4" d="M266.72,129.31c-0.74,1.31-1.35,2.72-1.74,4.18c-0.36,1.35-0.4,2.71-0.6,4.08c-0.14,1-1.13,1.01-2.01,1.25
				c-1.58,0.43-3.16,0.85-4.75,1.23c-5.91,1.43-12.08,2.34-18.03,0.58c0,1.61,0,3.21,0,4.82c9.97-3.36,20.48-4.48,30.94-3.33
				c-0.42-1.55-0.84-3.11-1.26-4.66c-3.16,1.74-6.64,2.95-10.23,3.41c-3.6,0.47-7.27,0.23-10.87-0.14
				c-7.52-0.77-15.02-2.13-22.51-0.37c-3.13,0.73-1.81,5.56,1.33,4.82c7.42-1.74,15.09,0.03,22.54,0.68
				c7.79,0.69,15.34-0.28,22.26-4.09c0.96-0.53,1.44-1.78,1.15-2.82c-0.31-1.14-1.3-1.71-2.41-1.84
				c-10.85-1.19-21.93,0.02-32.27,3.51c-2.31,0.78-2.44,4.1,0,4.82c6.95,2.06,14.23,1.01,21.14-0.69c1.64-0.4,3.28-0.83,4.91-1.29
				c1.59-0.45,3.16-1.15,4.1-2.59c0.92-1.42,0.84-3,1.07-4.61c0.23-1.57,0.78-3.06,1.56-4.44
				C272.62,129.03,268.3,126.5,266.72,129.31L266.72,129.31z"/>
		</g>
	</g>
	<g>
		<g>
			<path class="st4" d="M243.89,136.53c-4.66,0.15-9.32,0.03-13.96-0.39c-2.34-0.21-4.67-0.5-6.98-0.87
				c-1.99-0.32-4.77-1.42-6.69-0.45c-2,1.02-1.98,3.38-1.74,5.33c0.26,2.13,0.97,4.22,2.21,5.99c2.45,3.5,6.3,5.53,10.55,5.74
				c1.33,0.07,2.53-1.2,2.5-2.5c-0.08-3.46-3.08-6.22-5.23-8.66c-2.31-2.62-4.77-5.11-7.35-7.47c-0.59,1.42-1.18,2.85-1.77,4.27
				c2.52,0,5.03,0.02,7.55,0c2.42-0.02,4.87-0.16,7.17-0.96c2.32-0.81,2.42-4.05,0-4.82c-4.13-1.32-8.48-1.92-12.81-1.78
				c-3.21,0.11-3.22,5.11,0,5c3.93-0.13,7.74,0.4,11.48,1.6c0-1.61,0-3.21,0-4.82c-2.06,0.71-4.13,0.78-6.28,0.79
				c-2.37,0.01-4.74,0-7.11,0c-2.1,0-3.39,2.78-1.77,4.27c2.24,2.05,4.39,4.2,6.44,6.46c0.97,1.07,1.92,2.16,2.84,3.27
				c0.62,0.75,1.81,1.84,1.84,2.87c0.83-0.83,1.67-1.67,2.5-2.5c-2.32-0.12-4.53-1.2-6.02-3c-0.69-0.83-1.19-1.82-1.5-2.86
				c-0.16-0.54-0.29-1.09-0.33-1.66c-0.02-0.26-0.03-0.53-0.03-0.79c0-0.18,0.19-0.99,0.05-0.59c-0.21,0.37-0.43,0.74-0.64,1.1
				c-1.16,0.2-1.33,0.33-0.52,0.41c0.32,0.06,0.63,0.12,0.95,0.18c0.47,0.09,0.95,0.17,1.42,0.25c1.11,0.19,2.22,0.36,3.33,0.51
				c2.21,0.31,4.43,0.57,6.65,0.76c4.4,0.37,8.82,0.47,13.24,0.33C247.1,141.43,247.12,136.42,243.89,136.53L243.89,136.53z"/>
		</g>
	</g>
	<g>
		<g>
			<path class="st4" d="M218.62,139.32c-9.75,1.24-19.49,2.52-29.23,3.85c-2.09,0.28-2.46,3.72-0.6,4.57
				c4.15,1.9,8.65,2.01,13.02,0.76c2.11-0.6,4.16-1.48,6.08-2.54c1.89-1.04,4-2.31,4.5-4.57c1.12-5.05-5.78-7.63-9.62-8.03
				c-2.43-0.26-5.98-0.14-5.95,3.12c0.02,2.52,2.56,3.79,4.62,4.42c4.76,1.46,10.11,0.7,14.32-1.93c1.46-0.91,1.55-2.68,0.51-3.93
				c-2.38-2.86-7.12-3.66-9.95-0.99c-2.74,2.57-2.57,7.65,0.9,9.5c3.78,2.02,8.04-0.53,10.78-3.14c2.73-2.59,4.73-6.07,5.59-9.73
				c0.42-1.78,0.84-3.98,0.26-5.76c-0.74-2.25-3.09-2.98-5.19-3.38c-4.36-0.83-8.85-0.34-13.19,0.34
				c-4.28,0.67-8.49,1.77-12.55,3.28c-2.05,0.76-4.08,1.62-6.05,2.56c-1.93,0.92-3.78,1.99-4.27,4.25
				c-0.84,3.84,2.01,7.86,5.36,9.48c3.7,1.79,8.13,1.3,11.58-0.84c1.85-1.15,3.33-2.81,3.17-5.12c-0.14-1.99-1.39-3.87-2.61-5.37
				c-2.18-2.68-5.51-4.62-8.91-5.19c-3.63-0.61-7.43-0.04-10.27,2.45c-3.3,2.9-2.83,7.45-0.12,10.56c2.23,2.56,5.84,3.77,9.16,3.67
				c3.7-0.11,7.06-1.75,9.74-4.26c1.4-1.31,2.6-2.87,3.61-4.5c1-1.61,2.12-3.5,2.37-5.4c0.59-4.61-4.57-6.26-8.18-6.86
				c-3.95-0.66-8.32-0.39-11.64,2.08c-2.76,2.05-4.65,5.46-4.56,8.95c0.04,1.7,0.54,3.4,1.54,4.78c0.79,1.09,2.17,1.63,3.42,0.9
				c1.08-0.63,1.69-2.32,0.9-3.42c-1.08-1.48-1.1-3.06-0.34-4.73c0.95-2.08,2.79-3.22,4.97-3.69c2.51-0.54,5.2-0.04,7.6,0.76
				c0.41,0.13,0.76,0.37,1.16,0.51c0.1,0.03,0.27,0.25,0.26,0.23c-0.07-0.09-0.01-0.45-0.07-0.08c-0.2,1.24-1.18,2.58-1.84,3.63
				c-2.28,3.6-6.1,6.77-10.6,6.02c-1.83-0.3-3.8-1.29-4.57-3.09c-0.74-1.75,0.92-2.94,2.48-3.42c3.94-1.22,8.63,0.85,10.77,4.28
				c0.25,0.4,0.65,0.97,0.73,1.45c0.07,0.44,0.02,0.07,0.06,0c-0.09,0.14-0.27,0.24-0.4,0.34c-1,0.74-2.27,1.23-3.49,1.42
				c-2,0.31-4.15-0.3-5.45-1.91c-0.39-0.48-1.22-1.78-0.96-2.47c0.11-0.29,0.67-0.44,0.92-0.57c0.68-0.35,1.37-0.67,2.06-0.98
				c2.71-1.24,5.52-2.25,8.37-3.07c2.96-0.86,5.98-1.52,9.03-1.93c2.92-0.4,6.01-0.7,8.94-0.29c0.8,0.11,1.56,0.38,2.35,0.54
				c0.76,0.15,0.19,0.24,0.21-0.02c-0.1-0.22-0.17-0.26-0.2-0.14c0,0.25-0.01,0.49-0.03,0.74c-0.09,1.29-0.41,2.57-0.85,3.79
				c-0.89,2.51-2.56,4.79-4.62,6.46c-0.87,0.7-2.04,1.55-3.2,1.63c-0.31,0.02-0.59,0.04-0.86-0.13c-0.14-0.09-0.18-0.34-0.16-0.63
				c0.04-0.5,0.3-1,1.05-1.1c0.84-0.12,1.71,0.49,2.29,1.18c0.17-1.31,0.34-2.62,0.51-3.93c-1.89,1.18-4,1.89-6.24,1.97
				c-1.04,0.04-2.07-0.02-3.08-0.24c-0.58-0.13-1.17-0.27-1.72-0.49c-0.14-0.05-0.43-0.25-0.58-0.26c-0.48-0.06,0.35-1.09,0.22,0.58
				c-0.11,0.42-0.23,0.84-0.34,1.26c0.04-0.09,0.08-0.18,0.12-0.27c-0.5,0.38-1,0.77-1.49,1.15c2.22-0.33,4.55,0.25,6.44,1.43
				c0.12,0.07,0.94,0.84,0.96,0.84c-0.43,0,0.62-0.69-0.15-0.23c-0.97,0.59-1.91,1.22-2.93,1.74c-3.93,1.99-8.96,3.22-13.15,1.3
				c-0.2,1.52-0.4,3.05-0.6,4.57c9.29-1.27,18.59-2.49,27.9-3.68c1.34-0.17,2.5-1.03,2.5-2.5
				C221.12,140.6,219.96,139.15,218.62,139.32L218.62,139.32z"/>
		</g>
	</g>
	<g>
		<g>
			<path class="st4" d="M179.1,143.99c-0.87-2.78-2.42-5.28-4.62-7.21c-1.21-1.06-3.05-0.94-3.93,0.51
				c-1.65,2.73,0.07,6.22,2.95,7.21c1.62,0.56,3.42,0.31,4.99-0.28c1.42-0.53,2.97-1.17,3.91-2.41c2.03-2.69-0.01-6.21-1.74-8.5
				c-1.76-2.33-3.98-4.24-6.61-5.52c-1.53-0.74-3.1-0.1-3.67,1.49c-1.23,3.45-2.18,9.22,0.76,12.11c1.44,1.42,3.73,1.84,5.49,0.79
				c1.74-1.04,2.21-3.08,2.33-4.96c0.12-1.96-0.14-4.01-0.72-5.89c-0.57-1.85-1.42-3.91-2.97-5.15c-1.71-1.38-4.27-1.69-6-0.15
				c-1.49,1.32-1.77,3.33-2.02,5.2c-0.62,4.7,0.18,9.33,2.05,13.66c0.61,1.4,2.98,1.66,3.93,0.51c5.37-6.56,3.11-20.88-7.13-20.7
				c-1.78,0.03-2.65,1.57-2.41,3.16c0.54,3.62,1.96,7.08,4.11,10.04c0.73,1.01,1.91,1.56,3.12,1.02c1.09-0.48,1.84-1.74,1.45-2.95
				c-0.96-2.94-2.47-5.55-4.55-7.84c-1.42-1.57-4.39-0.37-4.27,1.77c0.26,4.63,1.62,9.07,4.09,13c0.94-1.22,1.88-2.45,2.82-3.67
				c-2.44-0.46-4.77-1.7-6.17-3.83c-0.15-0.23-0.27-0.44-0.36-0.7c-0.13-0.36-0.14,0.07-0.03-0.2c0.26-0.64,0.92-1.24,1.35-1.76
				c1.03-1.26,2.09-2.51,3.15-3.74c4.27-4.93,8.82-9.62,13.59-14.06c2.36-2.2-1.18-5.73-3.54-3.54c-5.68,5.29-11.04,10.93-16,16.9
				c-1.17,1.4-2.72,2.87-3.31,4.63c-0.67,2.01,0.07,4.01,1.28,5.63c2.11,2.82,5.22,4.82,8.69,5.48c2.01,0.38,4.07-1.7,2.82-3.67
				c-2-3.17-3.2-6.72-3.41-10.47c-1.42,0.59-2.85,1.18-4.27,1.77c1.48,1.63,2.58,3.54,3.26,5.63c1.52-0.64,3.05-1.28,4.57-1.93
				c-1.93-2.66-3.12-5.59-3.6-8.85c-0.8,1.05-1.61,2.11-2.41,3.16c2.28-0.04,4.02,1.79,4.63,3.87c0.41,1.42,0.42,2.94,0.2,4.39
				c-0.19,1.2-0.43,2.93-1.23,3.91c1.31,0.17,2.62,0.34,3.93,0.51c-1.16-2.7-1.67-5.68-1.58-8.61c0.02-0.66,0.06-1.32,0.14-1.97
				c0.04-0.27,0.52-1.81,0.39-1.97c-0.02-0.03-0.49,0.1-0.51,0.17c0.01-0.02,0.15,0.1,0.16,0.14c0.13,0.48,0.62,1.01,0.82,1.49
				c0.51,1.2,0.84,2.55,0.91,3.85c0.04,0.71,0.08,1.53-0.03,2.19c0.02-0.1-0.17,0.61-0.17,0.61c-0.16-0.15,0.71-0.42,0.73-0.43
				c0.46-0.32,0.19,0.02,0.19,0.03c-0.03,0.07-0.32-0.92-0.24-0.61c-0.16-0.62-0.14-1.3-0.14-1.93c0.02-1.63,0.36-3.17,0.9-4.7
				c-1.22,0.5-2.45,1-3.67,1.49c2.69,1.31,4.85,3.31,6.25,5.97c0.12,0.23,0.22,0.64,0.39,0.83c0.04,0.11,0.07,0.22,0.1,0.33
				c0.27-0.37,0.32-0.52,0.15-0.45c0.04,0.05-1.76,0.79-1.88,0.83c-0.49,0.15-0.96,0.21-1.41,0.19c-0.64-0.03,0-0.42-0.26,0.01
				c-1.31,0.17-2.62,0.34-3.93,0.51c1.56,1.37,2.71,3.01,3.33,5C175.24,148.38,180.07,147.07,179.1,143.99L179.1,143.99z"/>
		</g>
	</g>
	<g>
		<g>
			<path class="st4" d="M164.3,127.79c-0.05,0.96,0.36,1.73,0.96,2.44c0.69,0.8,2.16,0.95,3.03,0.39c0.94-0.6,1.45-1.72,1.15-2.82
				c-0.95-3.5-3.64-6.21-7.01-7.44c-1.98-0.72-4.77-0.98-6.04,1.08c-0.73,1.18-0.46,2.48-0.23,3.76c0.17,0.95,0.38,1.89,0.61,2.82
				c0.49,1.9,1.08,3.81,1.9,5.6c0.78,1.71,2.08,3.28,3.93,3.86c2.05,0.64,4.34-0.16,5.75-1.75c1.41-1.59,1.96-3.8,1.93-5.89
				c-0.02-1.17-0.33-2.28-1.12-3.17c-1.01-1.14-2.87-1.5-4.2-0.73c-1.63,0.95-2.46,3.06-2.41,4.88c0.11,3.84,3.37,6.9,7.25,6.17
				c1.76-0.33,3.37-1.48,4.33-3c1.06-1.69,1.14-3.76,0.45-5.6c-1.46-3.89-5.08-7.54-9.57-6.57c-2.22,0.48-4.08,2.42-4.5,4.64
				c-0.29,1.53,0.02,3.15,1.5,3.94c1.14,0.61,2.53,0.38,3.72,0.05c3.96-1.11,6.65-4.43,9.06-7.55c0.8-1.04,0.19-2.84-0.9-3.42
				c-1.33-0.7-2.57-0.21-3.42,0.9c0.32-0.42-0.21,0.27-0.27,0.35c-0.16,0.2-0.32,0.4-0.48,0.6c-0.37,0.45-0.75,0.9-1.15,1.33
				c-0.35,0.37-0.7,0.74-1.08,1.09c-0.18,0.17-0.37,0.34-0.56,0.5c-0.11,0.09-0.22,0.18-0.33,0.27c0.28-0.22,0.08-0.07-0.09,0.05
				c-0.43,0.3-0.88,0.56-1.35,0.8c-0.04,0.02-0.35,0.17-0.08,0.04c0.29-0.13-0.11,0.04-0.18,0.06c-0.29,0.1-0.59,0.19-0.9,0.26
				c-0.1,0.02-0.21,0.04-0.31,0.06c-0.34,0.08,0.36,0.04,0.05-0.01c-0.3-0.05,1.62,1.72,1.64,1.74c-0.14-0.15,0.1-0.25-0.01,0.08
				c0.04-0.12,0.08-0.27,0.11-0.38c-0.01,0.04-0.2,0.37-0.06,0.14c0.07-0.11,0.14-0.23,0.2-0.34c0.11-0.22-0.29,0.24,0.04-0.04
				c0.1-0.08,0.19-0.18,0.29-0.27c-0.05,0.04-0.33,0.19-0.1,0.11c0.06-0.02,0.44-0.21,0.16-0.1c-0.28,0.11,0.08-0.01,0.11-0.02
				c0.46-0.13,0.12-0.04,0-0.03c0.15-0.01,0.3-0.01,0.45-0.01c0.12,0,0.45,0.09,0.02-0.01c0.15,0.03,0.3,0.06,0.45,0.11
				c0.14,0.04,0.3,0.09,0.44,0.15c-0.12-0.05-0.35-0.19,0.03,0.04c0.1,0.06,0.2,0.12,0.29,0.18c0.06,0.04,0.42,0.33,0.21,0.14
				c-0.2-0.17,0.08,0.08,0.09,0.1c0.11,0.11,0.22,0.21,0.32,0.32c0.11,0.11,0.2,0.23,0.31,0.34c0.29,0.33-0.04-0.1,0.1,0.13
				c0.28,0.47,0.59,0.91,0.84,1.39c0.03,0.05,0.24,0.51,0.13,0.25c-0.1-0.23,0.05,0.14,0.05,0.15c0.05,0.15,0.09,0.31,0.14,0.46
				c0.19,0.61,0.05-0.18,0.05,0.16c0,0.15-0.01,0.31,0.01,0.45c0.04,0.32,0.01-0.25,0.04-0.21c0.03,0.03-0.08,0.29-0.09,0.35
				c-0.07,0.35,0.07-0.02,0.05-0.09c0.01,0.05-0.41,0.7-0.19,0.36c0.18-0.28-0.03,0.03-0.1,0.1c-0.11,0.1-0.23,0.21-0.33,0.32
				c0.03-0.03,0.37-0.22,0.14-0.11c-0.11,0.05-0.21,0.13-0.31,0.19c-0.08,0.05-0.17,0.08-0.24,0.13c0.39-0.25,0.27-0.09,0.09-0.05
				c-0.12,0.03-0.73,0.16-0.38,0.12c0.37-0.05-0.02-0.01-0.12-0.01c-0.47,0.01-0.09,0.11,0.03,0.04c-0.11,0.06-0.73-0.27-0.39-0.09
				c0.4,0.22-0.29-0.16-0.29-0.2c0-0.05,0.38,0.37,0.12,0.07c-0.03-0.04-0.24-0.22-0.23-0.24c0.01-0.02,0.34,0.53,0.08,0.1
				c-0.06-0.1-0.12-0.19-0.18-0.29c-0.01-0.01-0.16-0.26-0.15-0.3c0-0.01,0.18,0.6,0.07,0.12c-0.02-0.08-0.04-0.17-0.07-0.25
				c-0.01-0.03-0.01-0.06-0.02-0.08c-0.04-0.22-0.05-0.22-0.02,0c0.1,0.08,0.01,0.25,0-0.01c0-0.11-0.01-0.23-0.01-0.34
				c0,0.03,0.01-0.34,0.02-0.34c0.04,0-0.17,0.63,0.01,0.08c0.03-0.08,0.05-0.16,0.07-0.24c0.13-0.48-0.04,0.15-0.06,0.13
				c-0.01-0.01,0.18-0.31,0.17-0.29c0.1-0.18,0.16-0.08,0.02-0.03c-0.03,0.04-0.05,0.08-0.08,0.11c-0.47,0.43-0.97,0.54-1.49,0.34
				c-0.12-0.03-0.25-0.06-0.37-0.09c-0.27-0.14-0.45-0.34-0.54-0.6c-0.01-0.03-0.03-0.07-0.04-0.1c0.02,0.07,0.03,0.14,0.05,0.21
				c-0.04-0.27-0.05-0.31-0.04-0.13c0,0.07,0,0.14,0,0.22c0,0.27-0.02,0.54-0.04,0.81c-0.04,0.5-0.02,0.14,0,0.04
				c-0.03,0.15-0.06,0.31-0.09,0.46c-0.03,0.11-0.06,0.23-0.09,0.34c-0.02,0.06-0.18,0.52-0.07,0.25c0.11-0.27-0.09,0.17-0.12,0.23
				c-0.06,0.11-0.38,0.49-0.04,0.13c-0.09,0.1-0.56,0.51-0.36,0.38c0.24-0.16-0.06,0.02-0.09,0.04c-0.4,0.23-0.07,0.05,0.03,0.01
				c-0.13,0.04-0.26,0.07-0.39,0.11c0.15-0.04,0.47,0.03,0.06-0.03c0.03,0,0.42,0.11,0.16,0.03c-0.29-0.1-0.3-0.13-0.03,0.03
				c-0.11-0.06-0.22-0.14-0.33-0.19c0.04,0.02,0.31,0.29,0.13,0.09c-0.13-0.15-0.48-0.53-0.2-0.15c-0.33-0.44-0.56-0.93-0.8-1.42
				c0.27,0.53-0.11-0.29-0.15-0.4c-0.11-0.29-0.21-0.58-0.31-0.87c-0.23-0.66-0.44-1.33-0.63-2c-0.41-1.43-0.74-2.88-0.99-4.35
				c-0.02-0.1-0.01-0.3-0.06-0.39c0.14,0.4-0.05,0.73-0.57,0.97c-0.12,0.5-0.36,0.75-0.74,0.75c-0.05,0-0.09,0.01-0.14,0.01
				c0.1-0.01,0.2,0,0.3,0c0.29,0.01,0.37,0.06,0.04-0.01c0.26,0.05,0.53,0.1,0.78,0.18c0.13,0.04,0.26,0.08,0.38,0.12
				c0.07,0.02,0.59,0.22,0.26,0.09c-0.28-0.12,0.03,0.01,0.07,0.04c0.18,0.09,0.36,0.18,0.54,0.28c0.23,0.13,0.45,0.29,0.68,0.43
				c0.1,0.06,0.35,0.3-0.02-0.03c0.1,0.09,0.21,0.17,0.31,0.26c0.23,0.2,0.44,0.41,0.65,0.64c0.07,0.07,0.13,0.15,0.2,0.23
				c0.43,0.48-0.26-0.41,0.1,0.13c0.15,0.22,0.3,0.45,0.43,0.68c0.1,0.17,0.38,0.8,0.18,0.31c0.12,0.31,0.23,0.63,0.32,0.96
				c1.39-0.81,2.79-1.62,4.18-2.43c0.17,0.36,0.34,0.73,0.5,1.09c0.06-1.31-1.2-2.56-2.5-2.5
				C165.39,125.36,164.37,126.39,164.3,127.79L164.3,127.79z"/>
		</g>
	</g>
	<g>
		<g>
			<path class="st4" d="M163.58,130.07c12.54-4.1,25.87-3.15,38.81-2.22c1.35,0.1,2.5-1.22,2.5-2.5c0-1.49-1.15-2.33-2.5-2.5
				c-4.14-0.51-8.33-1.03-12.5-0.6c-3.92,0.4-8.38,1.35-10.72,4.86c-1.92,2.88-1.7,7.33-0.52,10.46c1.32,3.52,3.99,6.27,7.86,6.73
				c3.88,0.46,7.99-1.32,11.09-3.53c3.17-2.26,6.07-5.32,7.28-9.09c2.7-8.45-7.11-13.74-14.04-14.82
				c-3.68-0.57-7.64-0.46-11.17,0.83c-1.79,0.65-3.48,1.62-4.54,3.25c-1.1,1.71-1.16,3.88-0.43,5.74c1.44,3.67,5.36,6.28,9.33,5.71
				c3.69-0.53,6.05-3.87,6.39-7.41c0.35-3.63-1.7-6.94-4.47-9.12c-2.94-2.3-7.16-4.1-10.86-2.67c-7.17,2.76-7.09,14.5-0.67,18.03
				c3.49,1.92,7.9,1.25,11.13-0.91c1.58-1.05,2.96-2.37,4.18-3.83c1.15-1.37,2.36-2.83,3.11-4.46c0.8-1.76,1.21-3.81,0.27-5.61
				c-0.93-1.77-2.82-2.72-4.79-2.71c-3.61,0.01-6.67,2.71-8.06,5.88c-0.72,1.64-1.1,3.34-1.15,5.14c-0.08,3.22,4.92,3.22,5,0
				c0.05-1.92,0.74-4.04,2.31-5.26c0.53-0.41,1.22-0.75,1.9-0.75c0.65,0,0.4,0.23,0.15,0.88c-0.8,2.07-2.74,4.1-4.36,5.56
				c-1.64,1.47-3.91,2.59-6.16,2.11c-3.66-0.78-4.54-7.02-1.6-9.14c1.79-1.29,4.61,0.28,6.13,1.34c1.54,1.07,2.99,2.79,3,4.69
				c0,1.42-0.75,3.16-2.31,3.32c-1.62,0.17-4.13-1.57-3.97-3.37c0.16-1.8,3.9-2.27,5.23-2.45c2.34-0.32,4.77-0.17,7.06,0.41
				c2.42,0.61,4.82,1.65,6.77,3.23c1.91,1.54,2.59,3.37,1.57,5.68c-0.96,2.18-2.83,4.1-4.74,5.47c-2.04,1.47-4.69,2.9-7.27,2.93
				c-2.31,0.02-3.82-1.51-4.5-3.62c-0.63-1.93-1.1-5.12,0.64-6.61c2.03-1.74,5.47-1.95,8.01-2.03c3.49-0.12,6.97,0.31,10.43,0.74
				c0-1.67,0-3.33,0-5c-13.38-0.97-27.19-1.84-40.14,2.4C159.2,126.24,160.51,131.07,163.58,130.07L163.58,130.07z"/>
		</g>
	</g>
	<g>
		<g>
			<path class="st4" d="M170.03,132.92c3.39-1.58,6.26-4.36,7.99-7.68c1.55-2.96,3.59-8.61-0.15-10.78
				c-3.58-2.08-7.44,1.3-9.19,4.19c-1.94,3.21-2.61,7.5-1.36,11.09c0.69,1.98,1.98,3.85,4.08,4.48c1.85,0.56,4.03-0.13,5.18-1.67
				c1.42-1.9,0.8-4.33-0.73-5.96c-1.39-1.47-3.48-2.21-5.48-2.23c-4.02-0.04-7.52,2.92-9.17,6.43c-1.74,3.68-1.45,8.79,3.01,10.31
				c4.15,1.41,8.65-1.51,11.64-4.12c3.69-3.21,5.63-8.26,3.35-12.86c-0.88-1.77-3.37-1.47-4.32,0c-2.07,3.21-3.7,6.72-4.81,10.38
				c-0.55,1.8-0.95,3.63-1.23,5.49c-0.27,1.83-0.85,4.17,0.55,5.69c1.55,1.69,3.99,1.09,5.41-0.46c1.26-1.38,1.72-3.29,1.43-5.12
				c-0.58-3.6-4.2-5.69-7.65-5.52c-1.56,0.08-2.92,1.54-2.41,3.16c1.69,5.39,7.88,8.28,12.99,5.64c2.23-1.15,3.97-3.31,4.66-5.71
				c0.81-2.82-0.47-6.64-4.05-5.86c-1.41,0.31-1.97,1.81-1.75,3.08c0.76,4.4,5.61,7.2,9.84,6.28c2.36-0.51,4.46-2.39,5.15-4.71
				c0.71-2.43-0.42-4.96-2.37-6.43c-4.23-3.19-9.68,0.14-9.79,5.16c-0.12,5.43,5.71,7.33,10.19,6.76
				c4.92-0.63,10.15-3.82,10.28-9.28c-1.64,0.22-3.27,0.44-4.91,0.66c0.58,1.98,1.7,3.8,3.31,5.12c1.6,1.31,3.95,2.61,6.09,2.22
				c3.01-0.55,3.39-3.82,1.76-5.96c-1.44-1.88-3.2-3.44-5.17-4.74c-2.69-1.78-5.2,2.55-2.52,4.32c0.85,0.56,1.62,1.18,2.35,1.89
				c0.39,0.38,0.76,0.77,1.11,1.19c0.35,0.43,0.25,0.39,0.26,0.32c0.11-0.42,0.23-0.84,0.34-1.26c0.01-0.02,0.02-0.05,0.03-0.07
				c0.37-0.21,0.74-0.43,1.1-0.64c0.02-0.01,0.81,0.24-0.13-0.02c-0.23-0.06-0.47-0.13-0.69-0.22c-0.45-0.19-0.89-0.47-1.26-0.78
				c-0.86-0.71-1.44-1.63-1.75-2.69c-0.79-2.72-4.84-2.17-4.91,0.66c-0.06,2.51-3.3,3.94-5.62,4.31c-1.23,0.2-2.79,0.25-3.92-0.36
				c-1.03-0.56-1.13-1.38-0.74-2.21c0.3-0.64,0.81-0.95,1.56-0.45c0.91,0.6,0.77,1.36-0.04,1.96c-1.76,1.3-4.34-0.25-4.7-2.36
				c-0.58,1.03-1.16,2.05-1.75,3.08c0.08-0.02,0.16-0.03,0.24-0.05c-0.44,0-0.89,0-1.33,0c-0.28-0.19-0.54-0.4-0.8-0.62
				c-0.04-0.03-0.07-0.07-0.09-0.13c-0.05,0.03-0.17,0.66-0.18,0.67c-0.15,0.43-0.38,0.86-0.66,1.23c-0.62,0.8-1.5,1.4-2.49,1.61
				c-2.05,0.44-4.19-0.98-4.81-2.94c-0.8,1.05-1.61,2.11-2.41,3.16c0.9-0.04,2.05,0.08,2.58,0.93c0.42,0.68,0.17,1.27-0.48,1.55
				c0.42-0.11,0.84-0.23,1.26-0.34c-0.13,0-0.26,0-0.39,0.01c0.42,0.11,0.84,0.23,1.26,0.34c0.45,1.13,0.68,1.43,0.67,0.89
				c0.01-0.19,0.02-0.38,0.05-0.57c0.03-0.32,0.07-0.64,0.11-0.96c0.1-0.75,0.24-1.49,0.39-2.23c0.31-1.48,0.7-2.95,1.18-4.39
				c0.96-2.89,2.32-5.6,3.97-8.16c-1.44,0-2.88,0-4.32,0c1.98,4-3.5,8.19-6.68,9.4c-1.19,0.45-2.98,0.89-3.09-0.82
				c-0.11-1.82,1.29-3.84,2.66-4.91c0.64-0.5,1.42-0.86,2.23-0.94c0.45-0.04,0.88,0,1.3,0.14c0.25,0.08,0.28,0.08,0.55,0.24
				c0.12,0.07,0.51,0.49,0.59,0.51c0.22,0.06-0.3,1.03,0.01-0.37c0.04-0.18,0.22-0.33,0.3-0.47c0.02-0.03,0.18-0.03,0.17-0.02
				c-0.23,0.84-0.4-0.29-0.18-0.01c-0.51-0.67-0.78-1.37-0.93-2.23c-0.33-1.92,0.06-3.97,1-5.66c0.43-0.76,1.01-1.61,1.65-2.12
				c0.22-0.18,0.5-0.33,0.78-0.42c0.49-0.16,0.6,0.13-0.08-0.34c-1.33-0.92-0.04-0.37-0.18-0.28c0.06-0.05-0.09,0.85-0.08,0.8
				c-0.1,0.61-0.26,1.21-0.45,1.79c-0.35,1.09-0.87,2.11-1.49,3.07c-1.34,2.05-3.24,3.58-5.45,4.6c-1.22,0.57-1.53,2.33-0.9,3.42
				C167.34,133.28,168.8,133.49,170.03,132.92L170.03,132.92z"/>
		</g>
	</g>
	<g>
		<g>
			<path class="st4" d="M190.83,119.55c8.63-0.98,17.51-2.05,26.17-0.75c4.28,0.64,8.25,2.25,12.45,3.17
				c2.2,0.48,4.42,0.69,6.65,0.41c2.12-0.27,4.13-0.89,6.17-1.53c2.2-0.68,4.35-1.26,6.67-1.26c2.64,0,5.21,0.53,7.78,1.05
				c1.32,0.27,2.7-0.38,3.08-1.75c0.34-1.23-0.42-2.81-1.75-3.08c-4.63-0.94-9.26-1.73-13.94-0.67c-3.93,0.89-7.65,2.81-11.78,2.29
				c-4.38-0.55-8.5-2.5-12.86-3.27c-4.43-0.78-8.93-1.02-13.43-0.89c-5.09,0.14-10.16,0.71-15.21,1.28c-1.34,0.15-2.5,1.04-2.5,2.5
				C188.33,118.28,189.48,119.7,190.83,119.55L190.83,119.55z"/>
		</g>
	</g>
	<g>
		<g>
			<path class="st4" d="M254.61,121.86c4.85-0.1,9.71-0.66,14.45-1.71c2.09-0.46,4.45-0.86,6.27-2.05c1.75-1.15,3.4-3.78,1.88-5.76
				c-1.42-1.86-4.18-1.9-6.08-0.81c-2.04,1.16-2.83,3.48-3.58,5.55c-1.65,4.6-3.41,9.26-4.58,14.01c-0.63,2.54-0.91,5.27-0.16,7.82
				c0.69,2.34,2.26,4.32,2.88,6.68c0.59,2.23,4.45,2.53,4.82,0c0.64-4.36,1.01-8.96,0.37-13.35c-0.73-5.04-7.25-3.37-10.52-2.21
				c-3.85,1.37-7.35,3.51-11.08,5.16c-3.65,1.61-7.54,2.75-11.46,3.48c-4.52,0.84-9.15,1.01-13.73,0.65
				c0.59,1.42,1.18,2.85,1.77,4.27c3.49-2.92,8.27-3.84,12.55-4.95c5.32-1.38,10.64-2.77,15.96-4.15c2.39-0.62,5.2-0.97,7.36-2.22
				c2.14-1.24,3.04-3.72,2.23-6.04c-0.86-2.44-3.1-3.82-5.6-4.03c-2.56-0.22-5.1,0.82-7.39,1.84c-5.52,2.45-10.87,5.34-16.28,8.02
				c-2.29,1.13-1.11,4.65,1.26,4.66c13.89,0.03,27.77-1.63,41.26-4.92c2.82-0.69,2.08-4.78-0.66-4.91
				c-12.59-0.6-25.49,4.59-37.89,0.95c0,1.61,0,3.21,0,4.82c9.05-3.21,18.48-5.28,28.05-6.07c-0.72-1.25-1.44-2.51-2.16-3.76
				c-1.14,1.84-2.68,3.23-4.58,4.25c1.01,0.13,2.02,0.26,3.03,0.39c-0.69-0.6-1.29-1.25-1.63-2.12c-0.49-1.26-1.68-2.13-3.08-1.75
				c-1.2,0.33-2.23,1.81-1.75,3.08c0.65,1.68,1.54,3.14,2.91,4.33c0.88,0.76,1.99,0.94,3.03,0.39c2.64-1.41,4.81-3.5,6.38-6.04
				c0.94-1.53-0.26-3.92-2.16-3.76c-10.02,0.82-19.9,2.89-29.38,6.24c-2.27,0.8-2.47,4.1,0,4.82c12.97,3.8,26.11-1.4,39.22-0.77
				c-0.22-1.64-0.44-3.27-0.66-4.91c-13.08,3.19-26.47,4.77-39.93,4.74c0.42,1.55,0.84,3.11,1.26,4.66
				c4.21-2.09,8.41-4.17,12.62-6.26c1.94-0.96,3.86-1.99,5.94-2.6c0.75-0.22,3.21-0.89,3.47,0.35c0.03,0.12,0.13,0.1-0.38,0.26
				c-0.98,0.31-1.97,0.55-2.97,0.8c-2.3,0.6-4.61,1.2-6.91,1.8c-4.66,1.21-9.32,2.42-13.98,3.64c-4.56,1.19-9.02,2.62-12.69,5.7
				c-1.81,1.52-0.19,4.11,1.77,4.27c7.71,0.6,15.59-0.37,22.91-2.91c3.58-1.24,6.94-2.92,10.32-4.62c1.62-0.81,3.25-1.59,4.97-2.16
				c0.81-0.26,1.63-0.49,2.47-0.65c0.34-0.07,0.68-0.11,1.03-0.14c0.29-0.02,0.57-0.04,0.86-0.05c0.46-0.02,0.51,0,0.15,0.04
				c-0.3-0.3-0.6-0.6-0.9-0.9c0.22,0.32,0.18,1.57,0.21,2.11c0.05,1.04,0.07,2.09,0.05,3.13c-0.03,2.03-0.18,4.05-0.47,6.06
				c1.61,0,3.21,0,4.82,0c-0.66-2.51-2.38-4.59-2.99-7.1c-0.63-2.6,0.41-5.4,1.19-7.86c0.88-2.8,1.81-5.58,2.77-8.35
				c0.47-1.34,0.87-2.76,1.47-4.05c0.16-0.34,0.41-0.63,0.57-0.97c0.23-0.47,0.55,0.21-0.03-0.3c-0.24-0.59-0.49-1.18-0.73-1.77
				c0.05,0.92,0.07-0.27,0.16-0.18c0.06,0.07-0.54,0.38-0.52,0.36c-0.5,0.28-1.08,0.4-1.63,0.55c-1.77,0.48-3.57,0.89-5.38,1.22
				c-3.56,0.66-7.16,0.98-10.77,1.05C251.4,116.92,251.39,121.92,254.61,121.86L254.61,121.86z"/>
		</g>
	</g>
	<g>
		<g>
			<path class="st4" d="M276.94,114.46c-0.75,2.17-1.51,4.33-2.26,6.5c-0.76,2.18-1.49,4.39-1.56,6.72
				c-0.06,2.12,0.59,4.06,1.65,5.87c0.86,1.46,1.88,2.76,2.12,4.48c1.61-0.44,3.21-0.89,4.82-1.33c-0.54-1.65-1.29-3.2-2.32-4.6
				c-0.74-1-1.9-1.56-3.12-1.02c-1.13,0.5-1.78,1.72-1.45,2.95c1.01,3.68-2.85,6.72-5.82,7.99c-4.09,1.74-8.85,1.32-12.53,4.1
				c-1.08,0.81-1.64,2.16-0.9,3.42c0.62,1.06,2.34,1.72,3.42,0.9c1.94-1.47,4.26-1.86,6.6-2.31c2.72-0.53,5.37-1.3,7.77-2.74
				c4.29-2.58,7.69-7.52,6.27-12.68c-1.52,0.64-3.05,1.28-4.57,1.93c0.78,1.05,1.41,2.16,1.82,3.41c0.42,1.28,1.73,2.12,3.08,1.75
				c1.44-0.4,1.93-1.73,1.75-3.08c-0.46-3.31-3.69-5.65-3.59-9.03c0.06-1.93,0.84-3.83,1.47-5.63c0.73-2.09,1.45-4.18,2.18-6.27
				c0.44-1.28-0.5-2.73-1.75-3.08C278.64,112.33,277.38,113.18,276.94,114.46L276.94,114.46z"/>
		</g>
	</g>
	<g>
		<g>
			<path class="st4" d="M185.18,146.76c10.99-0.89,22.29-1.8,32.99,1.46c2.69,0.82,4.44-3.23,1.93-4.57
				c-10.47-5.59-21.3-10.49-32.39-14.72c-0.22,1.64-0.44,3.27-0.66,4.91c10.24-0.96,20.51-1.5,30.79-1.59
				c2.75-0.03,3.48-4.27,0.66-4.91c-4.89-1.12-9.9-1.71-14.92-1.73c-1.23,0-2.31,0.95-2.46,2.17c-0.13,1.1,0.55,2.57,1.79,2.74
				c6.02,0.86,12.07,1.47,18.15,1.77c2.82,0.14,3.39-4.23,0.66-4.91c-3.43-0.86-6.87-1.71-10.3-2.57c-0.44,1.61-0.89,3.21-1.33,4.82
				c6.32,0.89,12.61,1.93,18.87,3.14c1.32,0.26,2.7-0.37,3.08-1.75c0.35-1.28-0.43-2.75-1.75-3.08c-4.25-1.04-8.5-2.08-12.74-3.13
				c-0.22,1.64-0.44,3.27-0.66,4.91c4.46,0.56,8.92,1.12,13.38,1.69c1.22,0.15,2.32-1.07,2.46-2.17c0.15-1.23-0.57-2.39-1.79-2.74
				c-4.83-1.4-9.66-2.8-14.49-4.2c-0.44,1.61-0.89,3.21-1.33,4.82c3.66,0.57,7.32,1.13,10.97,1.7c0.44-1.61,0.89-3.21,1.33-4.82
				c-2.63-0.39-5.26-0.79-7.88-1.18c-1.33-0.2-2.69,0.33-3.08,1.75c-0.32,1.18,0.4,2.87,1.75,3.08c2.63,0.39,5.26,0.79,7.88,1.18
				c1.33,0.2,2.69-0.33,3.08-1.75c0.33-1.19-0.4-2.87-1.75-3.08c-3.66-0.57-7.32-1.13-10.97-1.7c-1.33-0.21-2.69,0.34-3.08,1.75
				c-0.36,1.32,0.44,2.7,1.75,3.08c4.83,1.4,9.66,2.8,14.49,4.2c0.22-1.64,0.44-3.27,0.66-4.91c-4.46-0.56-8.92-1.12-13.38-1.69
				c-2.82-0.35-3.36,4.25-0.66,4.91c4.25,1.04,8.5,2.08,12.74,3.13c0.44-1.61,0.89-3.21,1.33-4.82c-6.26-1.21-12.56-2.25-18.87-3.14
				c-1.34-0.19-2.68,0.33-3.08,1.75c-0.35,1.28,0.43,2.75,1.75,3.08c3.43,0.86,6.87,1.71,10.3,2.57c0.22-1.64,0.44-3.27,0.66-4.91
				c-5.63-0.28-11.24-0.79-16.82-1.59c-0.22,1.64-0.44,3.27-0.66,4.91c4.59,0.02,9.12,0.52,13.59,1.55
				c0.22-1.64,0.44-3.27,0.66-4.91c-10.28,0.1-20.56,0.63-30.79,1.59c-2.85,0.27-3.35,3.89-0.66,4.91
				c10.69,4.07,21.1,8.83,31.2,14.22c0.64-1.52,1.28-3.05,1.93-4.57c-11.14-3.39-22.88-2.57-34.32-1.64c-1.35,0.11-2.5,1.07-2.5,2.5
				C182.68,145.53,183.83,146.87,185.18,146.76L185.18,146.76z"/>
		</g>
	</g>
	<g>
		<g>
			<path class="st4" d="M198.63,122.96c4.32-0.66,8.73,0.29,12.96,1.1c4.67,0.89,9.25,1.37,14.01,1.37c2.38,0,4.77-0.02,7.14,0.19
				c2.35,0.21,4.67,0.66,7.01,0.91c4.64,0.5,9.16-0.5,13.77-0.88c5.31-0.44,10.65-0.44,15.97-0.43c-0.8-1.05-1.61-2.11-2.41-3.16
				c-1.2,2.85-2.36,5.77-3.81,8.51c-1.04,1.98-2.58,4.15-5.05,4.1c0.59,1.42,1.18,2.85,1.77,4.27c4.87-4.08,9.81-8.22,14.29-12.73
				c1.26-1.27,1.93-2.76,1.59-4.57c-0.25-1.31-0.96-2.53-1.91-3.46c-1.68-1.64-4.18-2.37-6.48-2.28c-5.72,0.22-9.11,4.92-13.21,8.21
				c-4.07,3.27-9.06,5.22-14.11,6.36c-2.81,0.63-5.66,1-8.53,1.18c-1.43,0.09-2.89,0.18-4.32,0.14c-0.57-0.02-0.87-0.2-1.48-0.27
				c0.21,0.02-0.26-0.11-0.21-0.11c0.12-0.01,0.15,0.37,0.15,0.43c-0.83,0.83-1.67,1.67-2.5,2.5c6.21-0.37,12.42-0.73,18.63-1.1
				c1.24-0.07,2.3-0.89,2.46-2.17c0.13-1.12-0.55-2.54-1.79-2.74c-5.96-0.95-11.91-0.62-17.89-0.16c0.22,1.64,0.44,3.27,0.66,4.91
				c5.59-1.16,11.19-2.31,16.72-3.71c4.78-1.21,10.01-2.26,13.09-6.47c1.15-1.56-0.4-3.78-2.16-3.76
				c-12.9,0.16-25.81-0.75-38.54-2.83c-6.32-1.03-12.61-2.27-18.97-3.01c-3.19-0.37-6.42-0.65-9.64-0.62
				c-3.14,0.04-5.76,0.8-8.34,2.58c-1.19,0.82-2.29,1.49-3.75,1.73c-1.35,0.22-2.78,0.11-4.13,0c-3.18-0.26-6.28-0.67-9.43,0.08
				c-1.44,0.34-2.46,2.39-1.49,3.67c0.25,0.33,0.49,0.65,0.74,0.98c0.81,1.08,2.16,1.63,3.42,0.9c1.06-0.62,1.71-2.33,0.9-3.42
				c-0.25-0.33-0.49-0.65-0.74-0.98c-0.5,1.22-1,2.45-1.49,3.67c5.18-1.23,10.51,1.38,15.63-0.71c2.59-1.05,4.43-3.23,7.34-3.47
				c2.99-0.24,6.08,0.06,9.06,0.36c6.25,0.62,12.42,1.86,18.62,2.89c6.36,1.06,12.77,1.88,19.2,2.41c7.2,0.6,14.42,0.84,21.64,0.75
				c-0.72-1.25-1.44-2.51-2.16-3.76c-1,1.37-2.78,2.07-4.33,2.58c-2.35,0.77-4.77,1.35-7.18,1.93c-5.08,1.24-10.2,2.3-15.32,3.36
				c-2.73,0.56-2.16,5.13,0.66,4.91c5.49-0.42,11.1-0.89,16.57-0.02c0.22-1.64,0.44-3.27,0.66-4.91c-6.21,0.37-12.42,0.73-18.63,1.1
				c-1.27,0.07-2.61,1.09-2.5,2.5c0.45,6.02,8.27,5.06,12.46,4.7c5.29-0.46,10.56-1.48,15.47-3.52c2.46-1.02,4.82-2.23,7-3.77
				c2.21-1.57,4.11-3.43,6.11-5.25c1.5-1.37,3.39-2.87,5.34-3.07c0.93-0.09,1.66-0.04,2.51,0.32c0.71,0.3,0.76,0.71,1.29,1.26
				c0.02,0.02,0.01,0.19,0.01,0.22c0.15-0.43,0.07-0.44-0.23-0.04c-0.12,0.11-0.23,0.22-0.35,0.33c-0.69,0.66-1.39,1.31-2.09,1.96
				c-1.29,1.19-2.58,2.38-3.89,3.55c-2.61,2.34-5.27,4.64-7.96,6.89c-1.74,1.45-0.25,4.23,1.77,4.27c3.77,0.07,6.82-2.38,8.73-5.45
				c2.07-3.34,3.43-7.23,4.95-10.83c0.65-1.54-0.96-3.16-2.41-3.16c-4.76,0-9.53-0.01-14.28,0.31c-4.65,0.31-9.34,1.43-14.01,1.14
				c-2.35-0.15-4.67-0.59-7.01-0.88c-2.36-0.29-4.74-0.35-7.12-0.35c-2.46,0-4.93,0.04-7.39-0.16c-2.2-0.17-4.38-0.58-6.54-0.99
				c-5.28-1-10.48-1.96-15.85-1.14c-1.34,0.2-2.07,1.88-1.75,3.08C195.95,122.64,197.29,123.16,198.63,122.96L198.63,122.96z"/>
		</g>
	</g>
	<g>
		<g>
			<path class="st4" d="M166.13,119.46c-3.23,2.98-6.45,5.98-9.64,9c-0.94,0.89-1.97,1.75-2.04,3.15c-0.06,1.14,0.56,2.03,0.92,3.06
				c0.64,1.84,0.84,3.67,0.68,5.61c-0.11,1.35,1.23,2.5,2.5,2.5c1.45,0,2.39-1.15,2.5-2.5c0.13-1.62,0.01-3.24-0.29-4.84
				c-0.14-0.71-0.32-1.42-0.56-2.1c-0.11-0.32-0.24-0.63-0.36-0.94c-0.12-0.3-0.25-0.6-0.39-0.9c-0.2-0.44-0.19-0.4,0.01,0.11
				c-0.11,0.42-0.23,0.84-0.34,1.26c0.14-0.26,0.75-0.72,1.05-1c0.45-0.42,0.9-0.85,1.35-1.27c0.9-0.85,1.81-1.7,2.71-2.54
				c1.81-1.69,3.62-3.38,5.44-5.05c0.99-0.92,0.93-2.61,0-3.54C168.67,118.47,167.12,118.54,166.13,119.46L166.13,119.46z"/>
		</g>
	</g>
	<line class="st5" x1="154.38" y1="126.95" x2="154.85" y2="149.38"/>
	<line class="st5" x1="182.88" y1="151.02" x2="154.85" y2="149.38"/>
	<g>
		<g>
			<path class="st4" d="M157.22,134.17c-0.08,1.19-0.16,2.38-0.32,3.56c0.05-0.4-0.07,0.42-0.07,0.42
				c-0.04,0.27-0.09,0.54-0.15,0.81c-0.11,0.53-0.23,1.07-0.39,1.59c-0.4,1.34-0.71,1.85-1.26,3.21c-0.45,1.11-0.79,2.26-0.81,3.47
				c-0.02,1.46,0.43,3.08,1.79,3.82c1.13,0.62,2.74,0.52,3.99,0.47c2.44-0.1,4.87-0.58,7.13-1.49c1.21-0.49,2.19-1.69,1.75-3.08
				c-0.38-1.17-1.78-2.27-3.08-1.75c-0.92,0.37-1.87,0.68-2.84,0.91c-0.48,0.11-0.97,0.21-1.47,0.29c-0.18,0.03-0.18,0.03-0.01,0
				c-0.09,0.01-0.18,0.02-0.27,0.03c-0.27,0.02-0.54,0.05-0.81,0.07c-0.45,0.03-0.9,0.04-1.36,0.03c-0.27,0-0.54-0.01-0.81-0.03
				c-0.65-0.03-0.92-0.33,0.24,0.56c0.67,0.77,0.91,0.89,0.72,0.35c0.01,0.06,0.01,0.12,0.02,0.17c-0.02-0.24-0.01-0.5,0.01-0.74
				c-0.04,0.37,0.02-0.04,0.06-0.19c0.06-0.25,0.14-0.49,0.22-0.73c0.07-0.2,0.15-0.41,0.23-0.61c0.31-0.79-0.19,0.41,0.16-0.37
				c0.23-0.52,0.45-1.03,0.66-1.55c0.38-0.92,0.66-1.88,0.87-2.85c0.45-2.1,0.61-4.25,0.77-6.38c0.09-1.31-1.22-2.56-2.5-2.5
				C158.29,131.73,157.32,132.77,157.22,134.17L157.22,134.17z"/>
		</g>
	</g>
	<g>
		<g>
			<path class="st4" d="M152.94,129.57c-0.01,4.16-0.01,8.31-0.02,12.47c0,1.97-0.34,4.32,0.17,6.24c0.59,2.21,2.59,2.81,4.59,3.17
				c3.63,0.65,7.36,1.23,11.05,0.81c1.98-0.23,3.84-0.69,5.66-1.5c1.47-0.66,2.61-1.59,4.27-1.63c2.18-0.05,4.28-0.59,5.44-2.6
				c0.97-1.69,1-4.05-0.21-5.63c-0.74-0.98-2.24-1.79-3.42-0.9c-5.74,4.32-13.12,2.96-19.65,1.68c-1.22-0.24-2.46,0.24-2.95,1.45
				c-0.44,1.09-0.1,2.54,1.02,3.12c4.05,2.08,8.37,3.51,12.88,4.16c0.22-1.64,0.44-3.27,0.66-4.91c-3.02,0.07-4.56,3.51-3.09,6.02
				c1.67,2.85,5.43,2.22,8.17,2.02c6.8-0.5,13.6-1,20.4-1.5c1.35-0.1,2.5-1.08,2.5-2.5c0-1.28-1.15-2.6-2.5-2.5
				c-4.81,0.35-9.62,0.71-14.43,1.06c-2.32,0.17-4.64,0.34-6.97,0.51c-0.97,0.07-1.94,0.1-2.91,0.14c-0.67,0.03,0.04-0.22,0.15,0.51
				c0.11,0.67-0.72,1.23-1.33,1.25c1.24-0.03,2.31-0.93,2.46-2.17c0.13-1.1-0.55-2.57-1.79-2.74c-4.08-0.58-8.02-1.77-11.69-3.65
				c-0.64,1.52-1.28,3.05-1.93,4.57c7.76,1.52,16.69,2.94,23.5-2.18c-1.14-0.3-2.28-0.6-3.42-0.9c0.23,0.3,0.37,0.44,0.21,0.59
				c0.03-0.03,0.16-0.07,0.05,0.02c-0.18,0.13-0.76,0.1-0.96,0.11c-2.08,0.04-3.71,0.56-5.52,1.56c-3.15,1.73-6.59,1.9-10.11,1.56
				c-1.76-0.17-3.54-0.45-5.27-0.81c-0.18-0.03-0.36-0.07-0.53-0.12c-0.49-0.17-0.33,0.08,0.49,0.74c0.11-0.06,0-1.14,0-1.36
				c0-1.14,0-2.28,0.01-3.42c0.01-4.24,0.01-8.48,0.02-12.71C157.95,126.35,152.95,126.35,152.94,129.57L152.94,129.57z"/>
		</g>
	</g>
	<g>
		<g>
			<path class="st4" d="M275.84,114.3c-2.93,4.42-1.94,9.98-0.2,14.65c1.41,3.77,4.2,9.83-0.61,12.36c-0.66,0.35-1.4,0.58-2.15,0.6
				c-0.52,0.02-1.01-0.12-1.52-0.12c-1.03,0-1.57,0.63-2.27,1.26c-1.46,1.32-3.63,1.59-5.52,1.71c-5.66,0.35-11.4,0.3-17.06,0.2
				c-6.88-0.13-13.75-0.58-20.59-1.33c0,1.67,0,3.33,0,5c2.63,0.03,5.26,0.07,7.89,0.1c-0.59-1.42-1.18-2.85-1.77-4.27
				c-3.4,4.38-10.47,1.32-15.01,1.47c-3.16,0.1-5.97,1.45-9.03,2c-2.98,0.53-6.03,0.14-8.88-0.83c-1.28-0.44-2.73,0.5-3.08,1.75
				c-0.38,1.37,0.46,2.64,1.75,3.08c3.31,1.14,6.85,1.48,10.32,1.02c3.35-0.45,6.46-2.09,9.87-2c3.24,0.08,6.43,1.05,9.68,0.76
				c2.97-0.26,6.02-1.25,7.92-3.69c1.27-1.64,0.58-4.24-1.77-4.27c-2.63-0.03-5.26-0.07-7.89-0.1c-1.35-0.02-2.5,1.16-2.5,2.5
				c0,1.47,1.15,2.35,2.5,2.5c8.55,0.93,17.15,1.4,25.75,1.37c3.96-0.01,7.95,0.01,11.9-0.24c3.49-0.22,7.12-0.99,9.56-3.7
				c-0.81,0.21-1.62,0.43-2.43,0.64c3.2,0.55,6.3-0.29,8.77-2.43c2.6-2.26,3.6-5.73,3.2-9.08c-0.43-3.62-2.15-6.8-3.11-10.28
				c-0.75-2.71-1.02-5.64,0.6-8.09C281.94,114.14,277.61,111.63,275.84,114.3L275.84,114.3z"/>
		</g>
	</g>
</g>
<g id="Name">
	<text transform="matrix(0.945 0 0 1 177.8898 132.8533)" class="st6 st7 st8">Indo Looks</text>
	<rect x="223.13" y="195.47" class="st9" width="3.57" height="0.77"/>
	<g>
		<g>
			<path class="st10" d="M270.64,55.19c-24.64,13.23-49.28,26.47-73.92,39.7c-6.89,3.7-13.79,7.4-20.68,11.11
				c-2.84,1.52-0.31,5.84,2.52,4.32c24.64-13.23,49.28-26.47,73.92-39.7c6.89-3.7,13.79-7.4,20.68-11.11
				C276,57.99,273.48,53.67,270.64,55.19L270.64,55.19z"/>
		</g>
	</g>
	<g>
		<g>
			<path class="st10" d="M149.86,116.59c-7.82,6.62-15.75,13.1-23.8,19.44c-1.06,0.84-0.88,2.66,0,3.54c1.05,1.05,2.47,0.84,3.54,0
				c8.05-6.34,15.99-12.82,23.8-19.44c1.03-0.87,0.9-2.64,0-3.54C152.38,115.56,150.9,115.71,149.86,116.59L149.86,116.59z"/>
		</g>
	</g>
	<g>
		<g>
			<path class="st10" d="M238.36,37.42C222.7,47.61,207.24,58.1,191.79,68.6c-15.52,10.55-31.02,21.12-46.71,31.41
				c-8.89,5.83-17.83,11.56-26.86,17.16c-2.73,1.69-0.22,6.02,2.52,4.32c15.97-9.89,31.66-20.23,47.24-30.71
				c15.57-10.47,31.03-21.1,46.6-31.58c8.73-5.88,17.49-11.71,26.31-17.45C243.57,39.99,241.07,35.66,238.36,37.42L238.36,37.42z"/>
		</g>
	</g>
	<path class="st11" d="M118.03,117.7c2.01-0.97,4.02-1.94,6.04-2.91"/>
	<line class="st11" x1="151.63" y1="116.54" x2="151.63" y2="116.54"/>
	<line class="st11" x1="150.11" y1="116.54" x2="153.18" y2="115.3"/>
	<g>
		<g>
			<path class="st10" d="M120.71,121.2c1.13-0.53,2.23-1.11,3.32-1.73c0.54-0.31,0.98-0.9,1.15-1.49c0.1-0.33,0.12-0.66,0.04-1
				c-0.02-0.33-0.11-0.64-0.3-0.93c-0.34-0.53-0.86-1-1.49-1.15c-0.66-0.15-1.33-0.09-1.93,0.25c-1.08,0.62-2.19,1.19-3.32,1.73
				c-0.29,0.16-0.53,0.37-0.7,0.64c-0.22,0.24-0.37,0.52-0.45,0.85c-0.1,0.33-0.12,0.66-0.04,1c0.02,0.33,0.11,0.64,0.3,0.93
				c0.34,0.53,0.86,1,1.49,1.15c0.22,0.03,0.44,0.06,0.66,0.09C119.9,121.54,120.32,121.43,120.71,121.2L120.71,121.2z"/>
		</g>
	</g>
	<g>
		<g>
			<path class="st12" d="M232.32,41.37c-2.05,1.53-4.09,3.06-6.14,4.59c-0.54,0.4-0.96,0.82-1.15,1.49c-0.16,0.6-0.09,1.4,0.25,1.93
				c0.34,0.53,0.86,1,1.49,1.15c0.61,0.14,1.4,0.14,1.93-0.25c2.05-1.53,4.09-3.06,6.14-4.59c0.54-0.4,0.96-0.82,1.15-1.49
				c0.16-0.6,0.09-1.4-0.25-1.93c-0.34-0.53-0.86-1-1.49-1.15C233.63,40.98,232.84,40.98,232.32,41.37L232.32,41.37z"/>
		</g>
	</g>
	<g>
		<g>
			<path class="st12" d="M259.03,66.91c2.08-0.72,4.09-1.66,5.93-2.86c0.54-0.35,0.97-0.86,1.15-1.49c0.16-0.6,0.09-1.4-0.25-1.93
				c-0.34-0.53-0.86-1-1.49-1.15c-0.64-0.15-1.36-0.12-1.93,0.25c-1.2,0.78-2.46,1.46-3.78,2.02c0.2-0.08,0.4-0.17,0.6-0.25
				c-0.51,0.21-1.03,0.41-1.55,0.59c-0.62,0.21-1.16,0.57-1.49,1.15c-0.31,0.54-0.45,1.33-0.25,1.93c0.2,0.6,0.57,1.19,1.15,1.49
				C257.68,66.96,258.4,67.13,259.03,66.91L259.03,66.91z"/>
		</g>
	</g>
	<line class="st13" x1="224.15" y1="46.87" x2="227.55" y2="50.7"/>
	<line class="st13" x1="233.34" y1="40.74" x2="236.66" y2="43.53"/>
	<path class="st13" d="M264.07,59.01c0.87,1.16,1.73,2.32,2.6,3.49"/>
	<line class="st13" x1="255.55" y1="63.47" x2="258.37" y2="67.04"/>
	<path class="st13" d="M236.66,43.53c-0.94,0.95-1.87,1.91-2.81,2.86"/>
	<line class="st13" x1="224.15" y1="46.87" x2="233.34" y2="40.74"/>
	<g>
		<g>
			<path class="st1" d="M156.91,126.65c11.27-9.83,26.84-14.51,41.67-12.58c4.31,0.56,8.51,1.77,12.76,2.66
				c4.45,0.93,8.97,1.56,13.48,2.09c4.54,0.53,9.11,1.07,13.68,1.33c4.39,0.25,8.74-0.15,13.04-1.09
				c9.18-2.02,17.79-6.13,27.12-7.56c1.34-0.2,2.07-1.88,1.75-3.08c-0.39-1.43-1.74-1.95-3.08-1.75c-8.39,1.28-16.2,4.73-24.36,6.89
				c-4.12,1.09-8.27,1.76-12.54,1.67c-4.57-0.1-9.15-0.7-13.7-1.2c-4.56-0.5-9.1-1.11-13.59-2.03c-4.37-0.89-8.67-2.11-13.1-2.74
				c-7.82-1.11-15.79-0.62-23.42,1.43c-8.58,2.31-16.55,6.58-23.25,12.42c-1.02,0.89-0.91,2.63,0,3.54
				C154.39,127.66,155.89,127.54,156.91,126.65L156.91,126.65z"/>
		</g>
	</g>
	<g>
		<g>
			<path class="st1" d="M223.89,119.3c1.4,0.05,2.79,0.16,4.18,0.35c-0.22-0.03-0.44-0.06-0.66-0.09c0.56,0.08,1.12,0.16,1.68,0.26
				c0.68,0.12,1.31,0.11,1.93-0.25c0.52-0.3,1.01-0.9,1.15-1.49c0.15-0.64,0.11-1.36-0.25-1.93c-0.33-0.52-0.86-1.04-1.49-1.15
				c-2.16-0.38-4.34-0.62-6.52-0.69c-1.31-0.04-2.56,1.18-2.5,2.5C221.46,118.19,222.49,119.25,223.89,119.3L223.89,119.3z"/>
		</g>
	</g>
	<g>
		<g>
			<path class="st1" d="M155.62,127.67c1.95-0.64,3.81-1.57,5.45-2.81c0.29-0.16,0.53-0.37,0.7-0.64c0.22-0.24,0.37-0.52,0.45-0.85
				c0.16-0.6,0.09-1.4-0.25-1.93c-0.34-0.53-0.86-1-1.49-1.15c-0.61-0.14-1.41-0.15-1.93,0.25c-1.1,0.84-2.3,1.54-3.58,2.08
				c0.2-0.08,0.4-0.17,0.6-0.25c-0.42,0.18-0.84,0.33-1.27,0.48c-0.62,0.2-1.16,0.58-1.49,1.15c-0.31,0.54-0.45,1.33-0.25,1.93
				c0.2,0.6,0.57,1.19,1.15,1.49C154.28,127.73,154.98,127.89,155.62,127.67L155.62,127.67z"/>
		</g>
	</g>
	<g>
		<g>
			<path class="st1" d="M156.23,125.46c0.09,0,0.17,0,0.26,0c0.34,0.01,0.67-0.06,0.96-0.22c0.31-0.1,0.58-0.27,0.8-0.52
				c0.24-0.23,0.42-0.49,0.52-0.8c0.16-0.3,0.23-0.62,0.22-0.96c-0.03-0.22-0.06-0.44-0.09-0.66c-0.12-0.42-0.33-0.79-0.64-1.1
				c-0.17-0.13-0.34-0.26-0.51-0.39c-0.39-0.23-0.81-0.34-1.26-0.34c-0.09,0-0.17,0-0.26,0c-0.34-0.01-0.67,0.06-0.96,0.22
				c-0.31,0.1-0.58,0.27-0.8,0.52c-0.24,0.23-0.42,0.49-0.52,0.8c-0.16,0.3-0.23,0.62-0.22,0.96c0.03,0.22,0.06,0.44,0.09,0.66
				c0.12,0.42,0.33,0.79,0.64,1.1c0.17,0.13,0.34,0.26,0.51,0.39C155.36,125.34,155.78,125.46,156.23,125.46L156.23,125.46z"/>
		</g>
	</g>
	<g>
		<g>
			<path class="st1" d="M157,125.46c3.22,0,3.22-5,0-5C153.78,120.46,153.78,125.46,157,125.46L157,125.46z"/>
		</g>
	</g>
	<g>
		<g>
			<path class="st1" d="M157,125.46c3.22,0,3.22-5,0-5C153.78,120.46,153.78,125.46,157,125.46L157,125.46z"/>
		</g>
	</g>
	<g>
		<g>
			<path class="st1" d="M157,125.46c3.22,0,3.22-5,0-5C153.78,120.46,153.78,125.46,157,125.46L157,125.46z"/>
		</g>
	</g>
	<g>
		<g>
			<path class="st1" d="M157,125.46c0.17,0,0.34,0,0.51,0c0.34,0.01,0.67-0.06,0.96-0.22c0.31-0.1,0.58-0.27,0.8-0.52
				c0.24-0.23,0.42-0.49,0.52-0.8c0.16-0.3,0.23-0.62,0.22-0.96c-0.03-0.22-0.06-0.44-0.09-0.66c-0.12-0.42-0.33-0.79-0.64-1.1
				c-0.17-0.13-0.34-0.26-0.51-0.39c-0.39-0.23-0.81-0.34-1.26-0.34c-0.17,0-0.34,0-0.51,0c-0.34-0.01-0.67,0.06-0.96,0.22
				c-0.31,0.1-0.58,0.27-0.8,0.52c-0.24,0.23-0.42,0.49-0.52,0.8c-0.16,0.3-0.23,0.62-0.22,0.96c0.03,0.22,0.06,0.44,0.09,0.66
				c0.12,0.42,0.33,0.79,0.64,1.1c0.17,0.13,0.34,0.26,0.51,0.39C156.13,125.34,156.55,125.46,157,125.46L157,125.46z"/>
		</g>
	</g>
	<g>
		<g>
			<path class="st1" d="M157.66,126.15c0.47-0.51,0.96-1,1.49-1.45c0.12-0.11,0.25-0.21,0.37-0.32c0.03-0.03,0.39-0.31,0.23-0.18
				c-0.18,0.14,0.35-0.25,0.34-0.24c0.13-0.09,0.27-0.19,0.4-0.28c0.58-0.39,1.17-0.74,1.79-1.05c0.29-0.15,0.58-0.29,0.88-0.42
				c0.04-0.02,0.46-0.21,0.26-0.12c-0.23,0.1,0.39-0.16,0.38-0.15c2.66-1.07,5.49-1.91,7.82-3.63c1.05-0.77,1.68-2.2,0.9-3.42
				c-0.67-1.04-2.29-1.73-3.42-0.9c-0.55,0.41-1.13,0.77-1.73,1.09c-0.32,0.17-0.64,0.33-0.97,0.48c-0.15,0.07-0.29,0.13-0.44,0.2
				c0.38-0.17-0.11,0.05-0.19,0.08c-1.32,0.53-2.66,1-3.97,1.56c-2.9,1.22-5.51,2.91-7.65,5.23c-0.89,0.96-1.02,2.6,0,3.54
				C155.09,127.04,156.71,127.18,157.66,126.15L157.66,126.15z"/>
		</g>
	</g>
	<g>
		<g>
			<path class="st14" d="M278.05,108.64c0-4.77,0-9.53,0-14.3c0-1.31-1.15-2.56-2.5-2.5c-1.35,0.06-2.5,1.1-2.5,2.5
				c0,4.77,0,9.53,0,14.3c0,1.31,1.15,2.56,2.5,2.5C276.91,111.08,278.05,110.04,278.05,108.64L278.05,108.64z"/>
		</g>
	</g>
	<g>
		<g>
			<path class="st14" d="M236.77,115.64c3.43-1.11,6.96-2.29,10.61-2.21c3.55,0.08,7.05,2.51,10.58,1.05
				c1.25-0.51,2.14-1.66,1.75-3.08c-0.35-1.26-1.78-2.16-3.08-1.75c-3.09,0.99-6.12,1.93-9.4,1.67c-3.36-0.27-6.53-1.05-9.91-0.35
				c-1.73,0.36-2.11,2.31-1.49,3.67c0.62,1.37,2.03,1.66,3.38,1.45c1.34-0.21,2.07-1.88,1.75-3.08c-0.39-1.43-1.74-1.95-3.08-1.75
				c-0.08,0.01-0.16,0.02-0.24,0.04c0.64,0.08,1.28,0.17,1.93,0.25c-0.07-0.04-0.14-0.08-0.22-0.12c0.3,0.3,0.6,0.6,0.9,0.9
				c-0.03-0.07-0.07-0.15-0.1-0.22c-0.5,1.22-1,2.45-1.49,3.67c3.07-0.64,6.27,0.45,9.35,0.57c3.42,0.13,6.74-0.86,9.96-1.89
				c-0.44-1.61-0.89-3.21-1.33-4.82c-1.45,0.6-2.83,0.01-4.28-0.42c-1.87-0.55-3.79-0.85-5.74-0.81c-3.84,0.08-7.55,1.21-11.17,2.39
				c-1.28,0.42-2.12,1.73-1.75,3.08C234.04,115.16,235.48,116.06,236.77,115.64L236.77,115.64z"/>
		</g>
	</g>
	<g>
		<g>
			<path class="st14" d="M279.25,106.08c0.42-3.9,0.1-7.87-0.86-11.68c-0.32-1.27-1.81-2.16-3.08-1.75
				c-1.31,0.42-2.09,1.72-1.75,3.08c0.22,0.88,0.41,1.77,0.55,2.66c0.03,0.21,0.08,0.41,0.09,0.62c-0.06-0.63,0.01,0.14,0.03,0.27
				c0.05,0.45,0.09,0.9,0.12,1.36c0.12,1.81,0.07,3.63-0.12,5.44c-0.14,1.3,1.25,2.56,2.5,2.5
				C278.22,108.51,279.1,107.47,279.25,106.08L279.25,106.08z"/>
		</g>
	</g>
	<g>
		<g>
			<path class="st14" d="M280.48,107.89c-0.47-3.91-0.8-7.83-0.98-11.77c-0.06-1.3-1.11-2.56-2.5-2.5c-1.3,0.06-2.56,1.1-2.5,2.5
				c0.18,3.93,0.51,7.86,0.98,11.77c0.16,1.29,1.04,2.57,2.5,2.5C279.2,110.33,280.65,109.28,280.48,107.89L280.48,107.89z"/>
		</g>
	</g>
	<g>
		<g>
			<path class="st14" d="M248.82,113.65c3.9-1.37,8.06-1.31,12.11-1.93c3.72-0.57,7.36-1.87,10.09-4.56
				c1.81-1.78-0.05-4.78-2.43-4.18c-7.2,1.81-14.39,3.91-21.68,5.35c-3.3,0.65-6.5,0.78-9.85,0.63c-3.07-0.14-6.11,0.15-8.45,2.33
				c-1.47,1.37-0.57,3.57,1.1,4.18c3.45,1.25,7.1,1,10.65,0.39c3.63-0.62,7.23-1.5,10.84-2.27c7.39-1.58,14.77-3.16,22.16-4.74
				c3.14-0.67,1.81-5.49-1.33-4.82c-7.06,1.51-14.13,3.02-21.19,4.53c-3.48,0.74-6.96,1.54-10.45,2.22
				c-3.12,0.62-6.29,0.97-9.34-0.14c0.37,1.39,0.74,2.79,1.1,4.18c1.65-1.53,4.72-0.85,6.74-0.78c3.45,0.13,6.92-0.38,10.29-1.09
				c6.96-1.48,13.85-3.42,20.75-5.16c-0.81-1.39-1.62-2.79-2.43-4.18c-2.21,2.18-5.37,2.95-8.36,3.34c-3.9,0.5-7.88,0.54-11.63,1.86
				c-1.27,0.45-2.12,1.71-1.75,3.08C246.09,113.14,247.54,114.1,248.82,113.65L248.82,113.65z"/>
		</g>
	</g>
	<g>
		<g>
			<path class="st14" d="M158.37,127.34c2.37-2.09,5.89-2.41,8.78-3.39c1.8-0.61,3.44-1.42,4.98-2.53c1.64-1.18,3.19-1.85,5.17-2.26
				c8.4-1.74,17.16-2.11,25.7-1.49c4.92,0.35,9.79,1.1,14.6,2.2c3.13,0.71,4.47-4.11,1.33-4.82c-9.1-2.07-18.48-2.96-27.8-2.53
				c-4.65,0.21-9.3,0.75-13.88,1.58c-2.09,0.38-4.2,0.87-6.06,1.94c-1.65,0.95-3.02,2.24-4.84,2.91c-4,1.47-8.2,1.93-11.51,4.85
				c-1.01,0.89-0.91,2.62,0,3.54C155.84,128.35,157.36,128.24,158.37,127.34L158.37,127.34z"/>
		</g>
	</g>
	<g>
		<g>
			<path class="st14" d="M219.4,120.94c5.17,0.33,10.39,0.59,15.5-0.46c4.82-1,9.27-3.28,13.56-5.6c2.83-1.53,0.31-5.85-2.52-4.32
				c-3.94,2.14-7.95,4.18-12.37,5.1c-4.64,0.96-9.48,0.59-14.17,0.29c-1.35-0.09-2.5,1.21-2.5,2.5
				C216.9,119.86,218.05,120.85,219.4,120.94L219.4,120.94z"/>
		</g>
	</g>
</g>
<g id="Layer_3">
	<g>
		<g>
			<path class="st15" d="M155.98,81.99c16.14,0.04,32.28,0.09,48.42,0.13c15.87,0.04,31.74,0.12,47.59-0.41
				c9.08-0.3,18.15-0.81,27.19-1.63c-0.83-0.83-1.67-1.67-2.5-2.5c-0.13,4.18-0.41,8.35-0.85,12.51c-0.21,1.98-0.46,3.95-0.75,5.92
				c-0.22,1.49-0.26,3.51-1.16,4.78c-0.86,1.2-2.73,1.48-4.05,1.87c-1.92,0.57-3.85,1.11-5.78,1.64c-3.94,1.07-7.91,2.05-11.89,2.94
				c-7.84,1.75-15.64,3.16-23.7,2.35c-7.88-0.79-15.52-3.13-23.26-4.68c-8.74-1.76-17.89-2.65-26.56-0.03
				c-3.07,0.93-1.76,5.76,1.33,4.82c16.04-4.85,32.36,3.22,48.26,4.87c8.48,0.88,16.78-0.62,25.03-2.45c4.06-0.91,8.11-1.9,12.12-3
				c2.09-0.57,4.17-1.16,6.24-1.77c1.84-0.55,3.67-1.12,5.17-2.37c1.66-1.39,2.4-3.52,2.76-5.59c0.41-2.35,0.71-4.73,0.99-7.09
				c0.59-4.88,0.95-9.79,1.1-14.71c0.04-1.26-1.18-2.62-2.5-2.5c-31.81,2.87-63.86,2.06-95.75,1.97c-9.15-0.02-18.3-0.05-27.46-0.07
				C152.76,76.98,152.76,81.98,155.98,81.99L155.98,81.99z"/>
		</g>
	</g>
	<g>
		<g>
			<path class="st15" d="M153.39,78.85c0.01,7.56,0.02,15.12,0.03,22.68c0,3.74,0.01,7.48,0.01,11.22c0,3.42,0.34,7-1,10.23
				c-1.08,2.61,3.32,4.45,4.57,1.93c3.27-6.6,8.99-11.11,15.97-13.33c7.39-2.35,15.4-2.61,23.09-2.18
				c4.81,0.26,9.57,0.93,14.27,1.95c3.14,0.68,4.48-4.14,1.33-4.82c-8.93-1.94-18.17-2.71-27.29-2.03c-8,0.6-16.31,2.4-22.84,7.31
				c-3.73,2.8-6.78,6.39-8.85,10.58c1.52,0.64,3.05,1.28,4.57,1.93c1.37-3.32,1.18-7.04,1.18-10.56c0-3.9-0.01-7.81-0.01-11.71
				c-0.01-7.73-0.02-15.45-0.03-23.18C158.39,75.63,153.39,75.63,153.39,78.85L153.39,78.85z"/>
		</g>
	</g>
	<g>
		<g>
			<path class="st15" d="M161.68,114.05c1.35-5.52,2.67-11.11,2.9-16.81c0.11-2.8-0.08-5.61-0.63-8.36
				c-0.54-2.71-1.63-5.29-2.01-8.03c-0.33-2.4-4.46-2.38-4.82,0c-0.63,4.17-1.13,8.37-1.47,12.57c-0.16,2.03-0.29,4.07-0.38,6.11
				c-0.09,2.06-0.61,4.55,0.83,6.22c0.53,0.61,1.67,0.94,2.43,0.64c0.99-0.38,1.66-0.92,1.95-1.98c0.3-1.1-0.21-2.23-1.15-2.82
				c-0.04-0.02-0.07-0.05-0.11-0.07c-2.73-1.72-5.24,2.6-2.52,4.32c0.04,0.02,0.07,0.05,0.11,0.07c-0.38-0.94-0.77-1.88-1.15-2.82
				c-0.02,0.06-0.03,0.12-0.05,0.17c0.58-0.58,1.16-1.16,1.75-1.75c-0.05,0.02-0.11,0.04-0.16,0.06c0.81,0.21,1.62,0.43,2.43,0.64
				c-0.06-0.07-0.13-0.15-0.19-0.22c0.24,0.59,0.49,1.18,0.73,1.77c-0.19-1.69,0.05-3.52,0.14-5.21c0.09-1.87,0.22-3.75,0.37-5.62
				c0.3-3.6,0.71-7.19,1.25-10.76c-1.61,0-3.21,0-4.82,0c0.35,2.52,1.31,4.87,1.86,7.34c0.57,2.53,0.7,5.13,0.6,7.72
				c-0.21,5.25-1.48,10.39-2.72,15.48C156.1,115.84,160.92,117.18,161.68,114.05L161.68,114.05z"/>
		</g>
	</g>
	<g>
		<g>
			<path class="st15" d="M167.46,82.56c3.46,0.37,6.88-0.41,10.26-1.08c3.23-0.64,6.41-0.84,9.7-0.73
				c3.56,0.13,7.11,0.45,10.67,0.56c3.48,0.1,6.96,0.08,10.45,0.04c14.24-0.18,28.47-0.44,42.71-0.67
				c3.97-0.06,7.94-0.12,11.92-0.19c2.07-0.03,4.14-0.06,6.21-0.1c0.99-0.02,1.99-0.03,2.98-0.05c0.41-0.01,0.83-0.01,1.24-0.02
				c0.33-0.01,0.66-0.01,0.99-0.02c0.46,0,0.48,0,0.06,0.02c-0.3-0.3-0.6-0.6-0.9-0.9c-0.32-0.51-0.11-0.39-0.29,0.24
				c-0.12,0.41-0.24,0.82-0.37,1.23c-0.28,0.89-0.6,1.77-0.93,2.64c-0.61,1.62-1.27,3.21-1.89,4.83c-1.32,3.44-2.42,7-2.49,10.71
				c-0.03,1.65,0.28,3.51,1.51,4.72c1.47,1.45,3.63,1.45,5.23,0.23c2.97-2.26,4.43-6.26,4.77-9.84c0.11-1.12-0.86-2.09-1.84-2.41
				c-4.81-1.6-9.94,2.29-10.15,7.22c-0.11,2.46,3.51,3.43,4.66,1.26c2.25-4.26,3.59-8.8,4.09-13.58c0.26-2.45-3.61-3.43-4.66-1.26
				c-2.05,4.27-3.89,8.65-5.5,13.11c1.64,0.22,3.27,0.44,4.91,0.66c0.43-4.8,0.58-9.61,0.43-14.43c-0.09-2.89-3.99-3.3-4.91-0.66
				c-1.69,4.82-3.38,9.63-5.06,14.45c-0.45,1.27,0.51,2.74,1.75,3.08c1.44,0.4,2.55-0.49,3.08-1.75c1.78-4.26,3.09-8.68,3.93-13.21
				c-1.61-0.44-3.21-0.89-4.82-1.33c-0.66,3.75-1.53,7.45-2.6,11.1c1.61,0.44,3.21,0.89,4.82,1.33c1.18-4.65,2.6-9.23,4.28-13.73
				c-1.61-0.44-3.21-0.89-4.82-1.33c-1.83,5.05-5.13,9.37-9.36,12.65c1.39,0.37,2.79,0.74,4.18,1.1c-0.52-1.64,1.14-3.82,1.83-5.21
				c1.03-2.05,2.06-4.11,3.1-6.16c0.88-1.75-0.62-4.52-2.82-3.67c-11.52,4.45-23.47,7.68-35.65,9.64c0.44,1.61,0.89,3.21,1.33,4.82
				c5.5-1.86,11.12-3.31,16.84-4.33c2.77-0.5,2.13-5.04-0.66-4.91c-14.75,0.7-29.52,1.01-44.29,0.92c0,1.67,0,3.33,0,5
				c9.07-0.47,18.15-0.94,27.22-1.4c3.2-0.16,3.22-5.16,0-5c-18.45,0.94-36.87,2.43-55.23,4.47c-1.34,0.15-2.5,1.04-2.5,2.5
				c0,1.38,1.14,2.48,2.5,2.5c11.81,0.21,23.62-0.43,35.33-1.91c1.34-0.17,2.5-1.03,2.5-2.5c0-1.39-1.14-2.46-2.5-2.5
				c-8.94-0.26-17.89,0.03-26.8,0.87c-1.34,0.13-2.5,1.06-2.5,2.5c0,1.35,1.14,2.51,2.5,2.5c7.79-0.06,15.56-0.45,23.32-1.18
				c3.15-0.3,3.27-4.92,0-5c-14.75-0.35-29.51-0.18-44.25,0.5c-3.2,0.15-3.23,5.09,0,5c12.12-0.34,24.22-1.08,36.28-2.22
				c1.24-0.12,2.3-0.86,2.46-2.17c0.13-1.12-0.55-2.54-1.79-2.74c-7.06-1.15-14.17-0.95-21.15,0.68c-2.79,0.65-2.11,4.86,0.66,4.91
				c14.26,0.25,28.5-0.83,42.56-3.15c2.81-0.46,2.1-4.95-0.66-4.91c-14.23,0.22-28.41,1.33-42.51,3.27
				c-1.21,0.17-1.95,1.66-1.79,2.74c0.18,1.23,1.18,2.15,2.46,2.17c8.98,0.15,17.96-1.17,26.51-3.91c2.58-0.83,2.27-5.04-0.66-4.91
				c-13.3,0.6-26.55,2.27-39.59,4.96c-2.78,0.57-2.13,4.97,0.66,4.91c8.26-0.16,16.5-0.69,24.72-1.56c1.34-0.14,2.5-1.05,2.5-2.5
				c0-1.34-1.14-2.53-2.5-2.5c-10.59,0.2-21.16,1.34-31.55,3.38c-1.21,0.24-1.96,1.6-1.79,2.74c0.19,1.27,1.18,2.08,2.46,2.17
				c9.22,0.6,18.36-1.08,26.84-4.69c1.93-0.82,1.43-4.22-0.6-4.57c-6.3-1.09-12.66-0.91-18.87,0.63c-2.68,0.66-2.19,5.13,0.66,4.91
				c5.07-0.39,9.94-2.08,14.04-5.11c-1.01-1.31-2.02-2.62-3.03-3.93c-4.84,4.58-7.46,11.35-6.83,18c0.2,2.14,2.59,3.32,4.27,1.77
				c2.56-2.38,4.42-5.6,5.05-9.05c0.53-2.93,0.11-6.86-3.17-7.99c-3.22-1.12-7,1.79-9.17,3.91c-2.15,2.1-4.54,5.38-4.79,8.48
				c-0.16,1.92,0.88,3.68,2.75,4.28c1.58,0.51,3.25,0.12,4.75-0.46c3-1.16,5.76-3.02,7.83-5.5c2.12-2.53,4.87-7.36,0.67-9.49
				c-3.12-1.58-6.97,0.48-9.21,2.65c-2.53,2.47-4.35,5.79-5.75,9c-0.64,1.47-1.35,2.95-1.2,4.6c0.2,2.23,2.05,3.71,4.23,3.78
				c3.25,0.1,6.78-1.79,9.29-3.7c2.35-1.79,6.01-4.98,4.88-8.29c-1.38-4.06-6.97-1.87-9.66-0.69c-2.94,1.29-5.65,3.28-7.72,5.74
				c-1.23,1.47-2.51,3.17-1.84,5.19c0.61,1.86,2.52,2.58,4.34,2.51c3.5-0.12,7-1.19,10.12-2.73c1.76-0.87,3.38-1.96,4.9-3.19
				c1.35-1.1,2.86-2.38,3.6-3.98c1.02-2.2-0.03-4.59-2.26-5.43c-1.7-0.65-3.52-0.32-5.24,0.1c-7.05,1.71-13.24,6.4-16.96,12.61
				c-0.9,1.51,0.23,3.96,2.16,3.76c7.48-0.77,14.51-4.35,19.24-10.25c1.04-1.29,0.95-2.97-0.51-3.93c-2.95-1.94-6.23,0.14-8.75,1.81
				c-2.81,1.87-5.48,3.96-7.97,6.23c-2.18,1.98,0.59,5.19,3.03,3.93c5.6-2.91,11.21-5.82,16.81-8.73c2.57-1.34,0.76-5.24-1.93-4.57
				c-9.49,2.35-18.68,5.89-27.31,10.48c-2.1,1.12-1.24,4.9,1.26,4.66c8.75-0.84,17.33-2.77,25.88-4.75c1.32-0.3,2.09-1.81,1.75-3.08
				c-0.39-1.42-1.74-1.96-3.08-1.75c-6.53,1.06-12.82,3.17-18.73,6.14c-2.23,1.12-1.16,4.73,1.26,4.66
				c8.48-0.26,16.94-1.18,25.29-2.73c2.75-0.51,2.15-5.14-0.66-4.91c-8.56,0.71-16.82,2.85-24.65,6.37
				c-2.19,0.98-1.17,4.98,1.26,4.66c10.76-1.41,21.47-3.15,32.12-5.25c2.77-0.55,2.13-4.99-0.66-4.91c-7.6,0.23-15.2,0.46-22.8,0.69
				c0,1.67,0,3.33,0,5c13.88-1.76,27.76-3.52,41.64-5.27c1.34-0.17,2.5-1.03,2.5-2.5c0-1.36-1.14-2.5-2.5-2.5
				c-11.24,0.01-22.46,0.98-33.55,2.84c-2.77,0.47-2.14,5.09,0.66,4.91c19.02-1.21,38.07-2.06,57.12-2.56c0-1.67,0-3.33,0-5
				c-13.09,1.38-26.1,3.4-38.99,6.07c-1.2,0.25-1.96,1.59-1.79,2.74c0.2,1.33,1.18,2,2.46,2.17c5.31,0.69,10.72-0.35,15.98-1.01
				c5.42-0.67,10.83-1.35,16.25-2.02c1.34-0.17,2.5-1.03,2.5-2.5c0-1.31-1.14-2.55-2.5-2.5c-7.81,0.32-15.58,1.52-23.11,3.61
				c-2.33,0.65-2.43,4.23,0,4.82c5.14,1.25,10.61,0.19,15.78-0.39c5.49-0.62,10.98-1.31,16.45-2.06c1.21-0.17,1.95-1.66,1.79-2.74
				c-0.19-1.28-1.18-2.07-2.46-2.17c-5.91-0.45-11.72,0.67-17.13,3.04c-2.37,1.04-1.04,4.65,1.26,4.66
				c5.78,0.02,11.55-0.87,17.05-2.66c1.18-0.38,1.98-1.49,1.79-2.74c-0.17-1.1-1.21-2.33-2.46-2.17c-3.73,0.49-7.24,1.6-10.49,3.53
				c-1.06,0.63-1.52,1.99-1.02,3.12c0.54,1.22,1.68,1.65,2.95,1.45c7.91-1.24,15.67-3.24,23.19-5.99c2.59-0.95,2.27-4.82-0.66-4.91
				c-5.15-0.17-10.29,1.32-14.53,4.25c-2.3,1.59-0.93,5.22,1.93,4.57c6.46-1.47,12.85-3.19,19.16-5.18
				c3.06-0.96,1.77-5.75-1.33-4.82c-3.18,0.95-6.04,2.67-8.31,5.09c-1.55,1.64-0.38,4.12,1.77,4.27c4.38,0.31,8.8-0.84,12.49-3.22
				c2.2-1.41,1.16-4.41-1.26-4.66c-3.81-0.39-7.75,0.67-10.85,2.92c-0.91,0.66-1.46,1.68-1.15,2.82c0.29,1.04,1.32,1.86,2.41,1.84
				c2.5-0.06,4.96-0.52,7.29-1.44c2.6-1.03,2.25-4.69-0.66-4.91c-1.06-0.08-2.13-0.16-3.19-0.25c-1.35-0.1-2.5,1.22-2.5,2.5
				c0,1.44,1.15,2.4,2.5,2.5c1.06,0.08,2.13,0.16,3.19,0.25c-0.22-1.64-0.44-3.27-0.66-4.91c-1.93,0.77-3.88,1.21-5.96,1.26
				c0.42,1.55,0.84,3.11,1.26,4.66c2.49-1.8,5.27-2.54,8.32-2.23c-0.42-1.55-0.84-3.11-1.26-4.66c-3.02,1.94-6.38,2.79-9.96,2.54
				c0.59,1.42,1.18,2.85,1.77,4.27c1.7-1.8,3.73-3.09,6.11-3.8c-0.44-1.61-0.89-3.21-1.33-4.82c-6.32,1.98-12.71,3.71-19.16,5.18
				c0.64,1.52,1.28,3.05,1.93,4.57c3.57-2.47,7.66-3.71,12.01-3.57c-0.22-1.64-0.44-3.27-0.66-4.91
				c-7.52,2.75-15.28,4.75-23.19,5.99c0.64,1.52,1.28,3.05,1.93,4.57c2.44-1.45,5.14-2.48,7.97-2.85c-0.22-1.64-0.44-3.27-0.66-4.91
				c-5.1,1.66-10.35,2.49-15.72,2.48c0.42,1.55,0.84,3.11,1.26,4.66c4.6-2.01,9.63-2.73,14.61-2.36c-0.22-1.64-0.44-3.27-0.66-4.91
				c-5.03,0.69-10.08,1.31-15.12,1.88c-2.48,0.28-4.96,0.56-7.44,0.79c-2.34,0.21-4.7,0.34-7-0.22c0,1.61,0,3.21,0,4.82
				c7.12-1.97,14.4-3.13,21.78-3.43c0-1.67,0-3.33,0-5c-5.42,0.67-10.83,1.35-16.25,2.02c-5.27,0.66-10.68,1.7-15.98,1.01
				c0.22,1.64,0.44,3.27,0.66,4.91c12.45-2.58,25.01-4.56,37.66-5.89c1.34-0.14,2.5-1.05,2.5-2.5c0-1.33-1.14-2.54-2.5-2.5
				c-19.05,0.49-38.1,1.34-57.12,2.56c0.22,1.64,0.44,3.27,0.66,4.91c10.65-1.79,21.43-2.66,32.22-2.67c0-1.67,0-3.33,0-5
				c-13.88,1.76-27.76,3.52-41.64,5.27c-1.34,0.17-2.5,1.03-2.5,2.5c0,1.32,1.14,2.54,2.5,2.5c7.6-0.23,15.2-0.46,22.8-0.69
				c-0.22-1.64-0.44-3.27-0.66-4.91c-10.21,2.01-20.47,3.71-30.79,5.07c0.42,1.55,0.84,3.11,1.26,4.66
				c6.97-3.13,14.52-5.05,22.13-5.68c-0.22-1.64-0.44-3.27-0.66-4.91c-7.91,1.47-15.91,2.31-23.96,2.55
				c0.42,1.55,0.84,3.11,1.26,4.66c5.52-2.78,11.44-4.65,17.54-5.64c-0.44-1.61-0.89-3.21-1.33-4.82
				c-8.11,1.88-16.25,3.78-24.55,4.57c0.42,1.55,0.84,3.11,1.26,4.66c8.27-4.4,17.02-7.73,26.11-9.98
				c-0.64-1.52-1.28-3.05-1.93-4.57c-5.6,2.91-11.21,5.82-16.81,8.73c1.01,1.31,2.02,2.62,3.03,3.93c1.85-1.68,3.79-3.26,5.84-4.69
				c0.99-0.69,1.99-1.36,3.03-1.98c0.4-0.24,0.8-0.49,1.25-0.61c0.26-0.07,0.13-0.04,0.38-0.09c0.33-0.05-0.45-0.3,0.16,0.11
				c-0.17-1.31-0.34-2.62-0.51-3.93c-3.87,4.83-9.51,8.15-15.71,8.79c0.72,1.25,1.44,2.51,2.16,3.76c3.29-5.5,9.64-10.27,16.04-10.6
				c-0.2,0.01,0.35-0.02,0.24,0.08c-0.32,0.31-0.55-1.11-0.5-0.84c-0.21-1.17,0-0.52-0.32-0.28c-0.14,0.11-0.28,0.28-0.39,0.39
				c-0.66,0.66-1.34,1.31-2.07,1.89c-1.4,1.11-2.99,2.03-4.61,2.76c-1.63,0.72-3.39,1.21-5.15,1.51c-0.37,0.06-0.75,0.11-1.13,0.14
				c-0.16,0.01-1.16-0.04-1.24,0.05c0.19,0.26,0.37,0.53,0.56,0.79c0.23,0.85,0.46,1.05,0.68,0.62c0.03-0.01,0.15-0.22,0.2-0.28
				c0.31-0.41,0.66-0.79,1.01-1.16c1.37-1.45,2.95-2.61,4.72-3.52c0.78-0.4,1.59-0.73,2.43-1c0.49-0.16,0.99-0.29,1.49-0.4
				c0.19-0.04,0.38-0.07,0.57-0.12c0.83-0.24,0.1,0.25-0.3-0.25c-0.21-0.37-0.43-0.74-0.64-1.1c-0.06-0.16,0.35-0.57,0.03-0.25
				c-0.14,0.14-0.23,0.38-0.35,0.54c-0.31,0.42-0.67,0.8-1.03,1.17c-0.86,0.88-1.79,1.65-2.84,2.29c-0.87,0.54-1.78,1.01-2.74,1.34
				c-0.54,0.19-1.12,0.39-1.69,0.49c1.09-0.2-0.4,0.07-0.38,0.06c-0.45-0.04-0.47-0.01-0.05,0.09c0.14,0.26,0.28,0.52,0.42,0.78
				c0.02-0.01,0.43-1.43,0.46-1.5c0.2-0.5,0.43-0.98,0.66-1.47c0.65-1.36,1.38-2.67,2.19-3.94c1.02-1.6,2.33-3.41,4.13-4.19
				c0.32-0.14,0.99-0.13,1.26-0.3c0.35-0.23,0.36,0.53-0.14-0.43c-0.24-0.47,0.18-0.73-0.21-0.21c-0.66,0.87-1.1,1.84-1.86,2.67
				c-1.42,1.55-3.17,2.84-5.12,3.64c-0.48,0.19-1,0.41-1.51,0.49c-0.02,0-0.41,0.04-0.4,0.03c0.03-0.03,0.17,0.08,0.17,0.07
				c0.17,0.27,0.35,0.54,0.52,0.81c0.02-0.05,0.03-0.09,0.05-0.14c0.05-0.04,0.25-0.71,0.28-0.79c0.22-0.53,0.5-1.05,0.79-1.54
				c1.08-1.84,2.58-3.43,4.39-4.57c0.47-0.3,1.27-0.52,1.64-0.9c0.19-0.19,0.42-0.05,0.05-0.25c0.31,0.17,0.26,1.45,0.17,2.05
				c-0.4,2.66-1.81,5.03-3.76,6.85c1.42,0.59,2.85,1.18,4.27,1.77c-0.51-5.43,1.4-10.7,5.37-14.46c2.01-1.9-0.71-5.64-3.03-3.93
				c-3.38,2.5-7.31,4.1-11.52,4.42c0.22,1.64,0.44,3.27,0.66,4.91c5.3-1.31,10.83-1.56,16.21-0.63c-0.2-1.52-0.4-3.05-0.6-4.57
				c-7.66,3.25-16.04,4.55-24.32,4c0.22,1.64,0.44,3.27,0.66,4.91c9.97-1.96,20.07-3.02,30.22-3.2c0-1.67,0-3.33,0-5
				c-8.21,0.88-16.46,1.4-24.72,1.56c0.22,1.64,0.44,3.27,0.66,4.91c12.61-2.6,25.4-4.19,38.26-4.78c-0.22-1.64-0.44-3.27-0.66-4.91
				c-8.16,2.61-16.62,3.87-25.18,3.73c0.22,1.64,0.44,3.27,0.66,4.91c13.64-1.87,27.41-2.88,41.18-3.09
				c-0.22-1.64-0.44-3.27-0.66-4.91c-13.62,2.24-27.43,3.21-41.23,2.97c0.22,1.64,0.44,3.27,0.66,4.91
				c6.04-1.42,12.35-1.68,18.49-0.68c0.22-1.64,0.44-3.27,0.66-4.91c-12.07,1.14-24.17,1.88-36.28,2.22c0,1.67,0,3.33,0,5
				c14.74-0.69,29.5-0.85,44.25-0.5c0-1.67,0-3.33,0-5c-7.75,0.73-15.53,1.12-23.32,1.18c0,1.67,0,3.33,0,5
				c8.91-0.84,17.86-1.13,26.8-0.87c0-1.67,0-3.33,0-5c-11.72,1.48-23.53,2.12-35.33,1.91c0,1.67,0,3.33,0,5
				c18.36-2.04,36.78-3.53,55.23-4.47c0-1.67,0-3.33,0-5c-9.07,0.47-18.15,0.94-27.22,1.4c-3.19,0.16-3.24,4.98,0,5
				c14.77,0.09,29.54-0.22,44.29-0.92c-0.22-1.64-0.44-3.27-0.66-4.91c-5.72,1.02-11.34,2.47-16.84,4.33
				c-3.1,1.05-1.81,5.33,1.33,4.82c12.19-1.96,24.14-5.2,35.65-9.64c-0.94-1.22-1.88-2.45-2.82-3.67c-1.25,2.48-2.49,4.96-3.74,7.44
				c-1.22,2.44-2.58,5-1.7,7.79c0.62,1.95,2.7,2.25,4.18,1.1c4.92-3.82,8.54-9.02,10.65-14.86c0.46-1.27-0.52-2.74-1.75-3.08
				c-1.4-0.38-2.6,0.48-3.08,1.75c-1.67,4.5-3.1,9.07-4.28,13.73c-0.79,3.12,3.92,4.42,4.82,1.33c1.07-3.65,1.94-7.35,2.6-11.1
				c0.23-1.33-0.36-2.69-1.75-3.08c-1.21-0.33-2.83,0.41-3.08,1.75c-0.83,4.54-2.15,8.96-3.93,13.21c1.61,0.44,3.21,0.89,4.82,1.33
				c1.69-4.82,3.38-9.63,5.06-14.45c-1.64-0.22-3.27-0.44-4.91-0.66c0.14,4.82,0,9.63-0.43,14.43c-0.11,1.22,1.04,2.32,2.17,2.46
				c1.29,0.15,2.31-0.59,2.74-1.79c1.46-4.06,3.13-8.03,5-11.92c-1.55-0.42-3.11-0.84-4.66-1.26c-0.41,3.86-1.6,7.63-3.41,11.06
				c1.55,0.42,3.11,0.84,4.66,1.26c0.08-1.82,2.24-2.92,3.82-2.4c-0.61-0.8-1.22-1.61-1.84-2.41c-0.17,1.79-0.89,3.58-1.99,5
				c-0.03,0.04-0.86,0.89-0.86,0.91c0,0,1.42,0.16,1.4,0.17c0.13-0.1-0.19,0.59,0-0.13c0.04-0.17-0.07-0.6-0.07-0.86
				c0-0.56,0.03-1.13,0.09-1.69c0.41-4.15,2.32-8.09,3.8-11.93c0.77-1.99,1.73-4.15,1.94-6.28c0.12-1.24-0.24-2.36-1.19-3.19
				c-0.95-0.83-2.13-0.9-3.33-0.89c-4.97,0.06-9.93,0.16-14.9,0.23c-9.93,0.16-19.86,0.31-29.79,0.47
				c-9.93,0.16-19.89,0.52-29.82,0.32c-5.48-0.11-10.98-0.85-16.47-0.59c-5.25,0.25-10.39,2.37-15.66,1.81
				c-1.34-0.14-2.5,1.25-2.5,2.5C164.96,81.53,166.11,82.42,167.46,82.56L167.46,82.56z"/>
		</g>
	</g>
	<g>
		<g>
			<path class="st15" d="M181.26,98.82c6.75,0.68,13.53,0.79,20.3,0.32c3.18-0.22,3.25-5.03,0-5c-6.31,0.07-12.63,0.14-18.94,0.2
				c0,1.67,0,3.33,0,5c13.03-0.43,26.05-1.23,39.03-2.39c1.34-0.12,2.5-1.06,2.5-2.5c0-1.34-1.14-2.52-2.5-2.5
				c-6,0.11-12,0.3-18,0.59c-5.59,0.26-11.12,0.62-16.32,2.84c-1,0.43-1.41,1.86-1.15,2.82c0.3,1.08,1.31,1.8,2.41,1.84
				c14.09,0.46,28.19-0.59,42.07-3.05c2.8-0.5,2.11-4.96-0.66-4.91c-14.47,0.25-28.9,2.23-42.91,5.89c-2.67,0.7-2.2,5.09,0.66,4.91
				c8.64-0.55,17.17-2.26,25.32-5.17c2.58-0.92,2.27-4.87-0.66-4.91c-12.12-0.17-24.24-0.34-36.36-0.51c0,1.67,0,3.33,0,5
				c11.32-0.56,22.65-1.13,33.97-1.69c3.19-0.16,3.24-5.01,0-5c-12.51,0.05-25.06,0.17-37.4,2.48c-2.35,0.44-2.42,4.44,0,4.82
				c7.45,1.18,14.96,1.47,22.47,0.75c1.34-0.13,2.5-1.06,2.5-2.5c0-1.37-1.14-2.48-2.5-2.5c-4.25-0.05-8.5,0.56-12.56,1.82
				c-1.05,0.33-1.84,1.29-1.84,2.41c0,1,0.77,2.26,1.84,2.41c4.48,0.64,8.97,0.9,13.49,0.66c3.21-0.17,3.22-4.84,0-5
				c-5.14-0.26-10.3,0.3-15.28,1.63c-2.75,0.73-2.15,4.86,0.66,4.91c9.35,0.16,18.7,0.25,28.06,0.31
				c9.14,0.06,18.32,0.34,27.45-0.18c5.15-0.29,10.29-0.9,15.32-2.01c-0.81-1.39-1.62-2.79-2.43-4.18
				c-0.83,0.76-1.66,1.51-2.49,2.27c-1.43,1.3-0.63,3.67,1.1,4.18c1.92,0.57,3.95,0.55,5.84-0.12c2.58-0.91,2.28-4.89-0.66-4.91
				c-4.11-0.03-8.17,1.14-11.6,3.41c-1.72,1.14-1.59,4.03,0.6,4.57c2.71,0.67,5.56,0.57,8.17-0.49c1.04-0.42,1.84-1.22,1.84-2.41
				c0-1.06-0.77-2.18-1.84-2.41c-2.68-0.59-5.4,0.13-7.32,2.13c-1.2,1.26-0.82,3.83,1.1,4.18c2.62,0.47,5.25,0.69,7.91,0.55
				c0-1.67,0-3.33,0-5c-4.05,0.33-8.03,1.11-11.88,2.41c-2.15,0.73-2.6,4.32,0,4.82c3.9,0.75,7.79,0.7,11.66-0.19
				c2.86-0.66,2.05-4.75-0.66-4.91c-2.49-0.14-4.97-0.19-7.46-0.12c-3.21,0.08-3.23,4.98,0,5c4.19,0.03,8.32-1.18,11.79-3.54
				c1.63-1.11,1.67-4.12-0.6-4.57c-4.75-0.94-9.46-0.31-13.79,1.84c-1.21,0.6-1.55,2.31-0.9,3.42c0.74,1.26,2.19,1.46,3.42,0.9
				c6.03-2.74,12.08-5.52,17.35-9.58c1.64-1.26,1.64-3.91-0.6-4.57c-6.29-1.85-13.2-0.93-18.78,2.5c-1.96,1.2-1.34,4.92,1.26,4.66
				c4.71-0.47,9.2-1.64,13.52-3.55c1.96-0.87,3.96-1.85,5.7-3.11c2.06-1.49,2.92-4.58,0.38-6.16c-1.73-1.08-4.32-0.53-6.22-0.31
				c-2.31,0.26-4.6,0.63-6.87,1.14c-4.6,1.05-9.05,2.69-13.27,4.78c-0.98,0.49-1.43,1.81-1.15,2.82c0.31,1.12,1.3,1.75,2.41,1.84
				c7.31,0.6,14.69-1.1,21.06-4.72c0.96-0.55,1.44-1.77,1.15-2.82c-0.31-1.14-1.3-1.71-2.41-1.84c-5.95-0.66-11.98-0.33-17.83,0.93
				c-2.85,0.61-5.65,1.46-8.36,2.53c-1.34,0.53-2.81,1.01-3.83,2.09c-1.15,1.22-1.38,2.82-0.6,4.3c0.55,1.05,1.75,1.33,2.82,1.15
				c9.88-1.68,19.43-4.85,28.4-9.31c0.98-0.49,1.43-1.81,1.15-2.82c-0.31-1.12-1.3-1.74-2.41-1.84c-4.56-0.39-9.2,0.02-13.62,1.19
				c-2.21,0.59-4.35,1.39-6.43,2.33c-2.1,0.95-4.22,2.19-4.23,4.78c-0.01,1.26,1.15,2.63,2.5,2.5c7.24-0.68,14.21-2.94,20.4-6.78
				c0.85-0.53,1.57-1.8,1.15-2.82c-1.54-3.75-5.96-3.35-9.37-3.67c-4.06-0.38-8.12-0.76-12.19-1.14c0,1.67,0,3.33,0,5
				c11.62-1.17,23.29-1.68,34.97-1.53c3.23,0.04,3.21-4.87,0-5c-4.64-0.18-9.29-0.37-13.93-0.55c0,1.67,0,3.33,0,5
				c3.83-0.11,7.67-0.21,11.5-0.32c0-1.67,0-3.33,0-5c-0.88,0.11-1.77,0.23-2.65,0.34c-2.85,0.37-3.33,3.79-0.66,4.91
				c2.94,1.23,6.31,1.04,9.18-0.3c2.9-1.35,4.87-4.04,6.49-6.71c0.89-1.47-0.23-4.01-2.16-3.76c-8.89,1.14-17.83,1.76-26.79,1.84
				c0,1.67,0,3.33,0,5c4.01-0.16,8-0.67,11.92-1.53c2.76-0.6,2.14-4.98-0.66-4.91c-14.86,0.38-29.72,0.77-44.57,1.15
				c-7.21,0.19-14.6,0.07-21.63,1.88c-6.26,1.61-12,5.39-18.64,5.31c-3.88-0.05-7.68-1.06-11.44-1.92
				c-1.95-0.44-3.91-0.87-5.85-1.33c-1.12-0.27-2.78-0.54-3.51-1.55c-1.2-1.67-3.97-1.62-4.57,0.6c-0.62,2.29,0.47,4.56,2.43,5.82
				c2.17,1.39,4.64,0.97,7.06,0.97c2.18,0,4.32,0.47,6.48,0.65c2.38,0.2,4.61-0.1,6.78-1.1c2.21-1.01,1.16-4.9-1.26-4.66
				c-1.82,0.18-3.34,0.97-4.26,2.61c-0.68,1.22-0.25,2.67,0.9,3.42c4.49,2.93,10.56,2.94,15.07,0.06c1.89-1.21,1.42-3.84-0.6-4.57
				c-5.18-1.86-11.03-1.25-15.77,1.5c-1.96,1.14-1.37,3.87,0.6,4.57c2.52,0.89,5.34,0.54,7.6-0.87c1.63-1.02,1.67-4.25-0.6-4.57
				c-5.51-0.77-11.06-0.27-16.26,1.78c-1.77,0.7-2.44,2.68-1.1,4.18c2.61,2.92,7.7,2.18,11.18,1.96c4.39-0.28,8.77-0.95,13.04-1.99
				c2.44-0.59,2.32-4.16,0-4.82c-3.86-1.1-8.31,0.17-10.8,3.37c-1.32,1.69-0.55,4.15,1.77,4.27c9.29,0.46,18.67-1.06,27.32-4.48
				c1.04-0.41,1.84-1.22,1.84-2.41c0-1.04-0.77-2.19-1.84-2.41c-4.1-0.83-8.13-0.32-11.91,1.47c-2.41,1.14-1,4.52,1.26,4.66
				c6.09,0.37,12.24-0.39,18.06-2.24c2.66-0.84,2.22-4.88-0.66-4.91c-5.13-0.06-10.26-0.12-15.39-0.18c0,1.67,0,3.33,0,5
				c10.93-0.03,21.87-0.21,32.8-0.52c0-1.67,0-3.33,0-5c-5.08,0.44-10.17,0.89-15.25,1.33c-1.35,0.12-2.5,1.06-2.5,2.5
				c0,1.32,1.14,2.55,2.5,2.5c6.47-0.22,12.94-0.45,19.42-0.67c-0.22-1.64-0.44-3.27-0.66-4.91c-4.21,0.57-8.34,1.54-12.36,2.9
				c-2.73,0.92-2.15,4.69,0.66,4.91c4.25,0.34,8.5,0.02,12.68-0.85c2.71-0.57,2.15-5.28-0.66-4.91c-2.59,0.34-5.17,0.68-7.76,1.01
				c-1.34,0.17-2.5,1.02-2.5,2.5c0,1.32,1.14,2.55,2.5,2.5c5.35-0.19,10.7-0.37,16.06-0.56c-0.42-1.55-0.84-3.11-1.26-4.66
				c-2.97,1.49-5.69,3.46-8.06,5.79c-1.23,1.21-0.81,3.88,1.1,4.18c6.18,0.96,12.09-1.44,15.87-6.42c0.91-1.2,0-3.45-1.49-3.67
				c-5.77-0.85-11.36-0.12-16.73,2.16c-2.27,0.97-1.12,4.86,1.26,4.66c2.98-0.25,5.8-1.13,8.31-2.78c1.63-1.07,1.67-4.17-0.6-4.57
				c-1.6-0.28-3.2-0.56-4.8-0.84c0.5,1.22,1,2.45,1.49,3.67c0.74-1.37,1.49-2.73,2.23-4.1c0.4-0.73,0.53-1.81,0-2.52
				c-1.02-1.38-2.62-1.95-4.19-1.03c-1.39,0.81-1.97,2.5-1.43,3.99c1,2.72,4.94,2.93,7.34,3.51c3.13,0.75,4.46-4.07,1.33-4.82
				c-0.97-0.23-1.93-0.46-2.9-0.69c-0.42-0.1-0.85-0.18-1.27-0.31c-0.73-0.22-0.23-0.26-0.06,0.09c0.11,0.42,0.23,0.84,0.34,1.26
				c-0.2,0.4-0.41,0.8-0.61,1.19c-0.42,0.11-0.84,0.23-1.26,0.34c-0.08-0.01-0.17-0.03-0.25-0.04c-0.5-0.38-1-0.77-1.49-1.15
				c0.05,0.06,0.09,0.12,0.14,0.18c0-0.84,0-1.68,0-2.52c-0.74,1.37-1.49,2.73-2.23,4.1c-0.71,1.3-0.16,3.38,1.49,3.67
				c1.6,0.28,3.2,0.56,4.8,0.84c-0.2-1.52-0.4-3.05-0.6-4.57c-1.75,1.15-3.68,1.92-5.79,2.1c0.42,1.55,0.84,3.11,1.26,4.66
				c4-1.7,8.58-2.28,12.88-1.65c-0.5-1.22-1-2.45-1.49-3.67c-2.28,3.01-6.49,4.7-10.22,4.12c0.37,1.39,0.74,2.79,1.1,4.18
				c2.09-2.05,4.43-3.69,7.05-5c2.23-1.11,1.16-4.74-1.26-4.66c-5.35,0.19-10.7,0.37-16.06,0.56c0,1.67,0,3.33,0,5
				c2.59-0.34,5.17-0.68,7.76-1.01c-0.22-1.64-0.44-3.27-0.66-4.91c-3.74,0.78-7.54,0.98-11.35,0.67c0.22,1.64,0.44,3.27,0.66,4.91
				c4.02-1.36,8.15-2.32,12.36-2.9c1.21-0.16,1.95-1.66,1.79-2.74c-0.18-1.18-1.19-2.21-2.46-2.17c-6.47,0.22-12.94,0.45-19.42,0.67
				c0,1.67,0,3.33,0,5c5.08-0.44,10.17-0.89,15.25-1.33c1.35-0.12,2.5-1.06,2.5-2.5c0-1.32-1.14-2.54-2.5-2.5
				c-10.93,0.31-21.86,0.49-32.8,0.52c-3.22,0.01-3.22,4.96,0,5c5.13,0.06,10.26,0.12,15.39,0.18c-0.22-1.64-0.44-3.27-0.66-4.91
				c-5.44,1.73-11.04,2.41-16.73,2.06c0.42,1.55,0.84,3.11,1.26,4.66c2.49-1.18,5.36-1.51,8.06-0.96c0-1.61,0-3.21,0-4.82
				c-8.29,3.28-17.09,4.75-25.99,4.31c0.59,1.42,1.18,2.85,1.77,4.27c1.45-1.86,3.63-2.74,5.94-2.08c0-1.61,0-3.21,0-4.82
				c-3.54,0.86-7.12,1.46-10.75,1.74c-1.76,0.14-3.53,0.2-5.3,0.2c-1.04,0-2.55,0.22-3.31-0.63c-0.37,1.39-0.74,2.79-1.1,4.18
				c4.31-1.7,8.99-2.42,13.6-1.78c-0.2-1.52-0.4-3.05-0.6-4.57c-1.22,0.76-2.4,0.85-3.74,0.37c0.2,1.52,0.4,3.05,0.6,4.57
				c3.67-2.13,7.95-2.42,11.92-0.99c-0.2-1.52-0.4-3.05-0.6-4.57c-3.1,1.98-6.94,1.95-10.02-0.06c0.3,1.14,0.6,2.28,0.9,3.42
				c0.32-0.58,0.08-0.15-0.06-0.14c-0.42-1.55-0.84-3.11-1.26-4.66c-2.58,1.18-5.91,0.17-8.58-0.11c-1.58-0.17-3.12-0.05-4.7-0.02
				c-0.24,0-2.27-0.03-2.13-0.56c-1.52,0.2-3.05,0.4-4.57,0.6c2.11,2.93,5.36,3.59,8.69,4.34c3.52,0.8,7.04,1.71,10.61,2.32
				c3.69,0.63,7.36,0.85,11.05,0.1c3.33-0.67,6.45-2.06,9.61-3.28c3.26-1.25,6.58-2.19,10.05-2.64c3.61-0.47,7.27-0.54,10.91-0.64
				c7.81-0.2,15.61-0.4,23.42-0.6c8.55-0.22,17.09-0.44,25.64-0.66c-0.22-1.64-0.44-3.27-0.66-4.91c-3.5,0.76-7.02,1.21-10.59,1.35
				c-3.2,0.13-3.23,5.03,0,5c8.96-0.08,17.9-0.7,26.79-1.84c-0.72-1.25-1.44-2.51-2.16-3.76c-1.11,1.83-2.36,3.76-4.34,4.74
				c-1.83,0.9-3.85,0.74-5.68-0.03c-0.22,1.64-0.44,3.27-0.66,4.91c0.88-0.11,1.77-0.23,2.65-0.34c1.34-0.17,2.5-1.03,2.5-2.5
				c0-1.33-1.14-2.54-2.5-2.5c-3.83,0.11-7.67,0.21-11.5,0.32c-3.22,0.09-3.22,4.87,0,5c4.64,0.18,9.29,0.37,13.93,0.55
				c0-1.67,0-3.33,0-5c-11.68-0.16-23.35,0.35-34.97,1.53c-3.2,0.32-3.23,4.7,0,5c3.23,0.3,6.47,0.6,9.7,0.91
				c1.58,0.15,3.15,0.29,4.73,0.44c0.6,0.06,1.52,0.11,1.94,0.17c0.19,0.03,0.43,0.14,0.61,0.13c0.32-0.01,0.25,0.66-0.24-0.52
				c0.38-0.94,0.77-1.88,1.15-2.82c-5.41,3.36-11.53,5.5-17.88,6.1c0.83,0.83,1.67,1.67,2.5,2.5c-0.01,1-0.57,0.54,0.05,0.37
				c0.37-0.1,0.75-0.39,1.1-0.55c0.74-0.35,1.49-0.67,2.26-0.96c1.73-0.65,3.51-1.17,5.31-1.56c3.48-0.75,7.03-0.9,10.57-0.6
				c-0.42-1.55-0.84-3.11-1.26-4.66c-8.58,4.26-17.76,7.2-27.21,8.8c0.94,0.38,1.88,0.77,2.82,1.15c-0.04-0.08-0.09-0.17-0.13-0.25
				c0.11,0.42,0.23,0.84,0.34,1.26c0.09,0.78-0.5,0.47,0.18,0.38c0.46-0.06,1.04-0.43,1.48-0.6c1.12-0.43,2.25-0.82,3.39-1.18
				c2.28-0.71,4.62-1.26,6.98-1.65c4.64-0.77,9.41-0.81,14.08-0.29c-0.42-1.55-0.84-3.11-1.26-4.66
				c-5.65,3.21-12.06,4.57-18.53,4.04c0.42,1.55,0.84,3.11,1.26,4.66c3.51-1.74,7.18-3.07,10.98-4.02c1.85-0.46,3.73-0.84,5.63-1.1
				c0.93-0.13,1.86-0.22,2.8-0.3c0.45-0.04,0.9-0.07,1.35-0.09c0.24-0.02,0.49-0.03,0.74-0.03c-0.41-0.13-0.73-0.41-0.95-0.85
				c0-0.44,0-0.89,0-1.33c0.05-0.23,0.4-0.36-0.27,0.07c-0.31,0.2-0.62,0.38-0.94,0.57c-0.69,0.41-1.4,0.8-2.12,1.16
				c-1.31,0.67-2.65,1.25-4.03,1.75c-2.89,1.03-5.9,1.75-8.95,2.06c0.42,1.55,0.84,3.11,1.26,4.66c4.49-2.76,9.87-3.48,14.93-1.99
				c-0.2-1.52-0.4-3.05-0.6-4.57c-5.27,4.06-11.32,6.84-17.35,9.58c0.84,1.44,1.68,2.88,2.52,4.32c3.06-1.52,6.59-2,9.94-1.33
				c-0.2-1.52-0.4-3.05-0.6-4.57c-2.78,1.89-5.9,2.88-9.27,2.86c0,1.67,0,3.33,0,5c2.49-0.06,4.98-0.02,7.46,0.12
				c-0.22-1.64-0.44-3.27-0.66-4.91c-2.96,0.69-6.02,0.77-9.01,0.19c0,1.61,0,3.21,0,4.82c3.43-1.16,6.95-1.93,10.55-2.23
				c1.35-0.11,2.5-1.07,2.5-2.5c0-1.3-1.14-2.57-2.5-2.5c-2.21,0.11-4.4,0.02-6.58-0.37c0.37,1.39,0.74,2.79,1.1,4.18
				c0.66-0.69,1.51-1.05,2.45-0.84c0-1.61,0-3.21,0-4.82c-1.81,0.74-3.6,0.97-5.51,0.49c0.2,1.52,0.4,3.05,0.6,4.57
				c2.74-1.81,5.79-2.76,9.08-2.73c-0.22-1.64-0.44-3.27-0.66-4.91c-1.1,0.39-2.06,0.45-3.18,0.12c0.37,1.39,0.74,2.79,1.1,4.18
				c0.83-0.76,1.66-1.51,2.49-2.27c1.94-1.77-0.13-4.69-2.43-4.18c-8.6,1.91-17.43,2.11-26.2,2.1c-9.22-0.02-18.44-0.1-27.66-0.19
				c-5.21-0.05-10.43-0.12-15.64-0.21c0.22,1.64,0.44,3.27,0.66,4.91c4.57-1.22,9.22-1.69,13.95-1.45c0-1.67,0-3.33,0-5
				c-4.06,0.21-8.14,0.09-12.17-0.48c0,1.61,0,3.21,0,4.82c3.67-1.13,7.4-1.68,11.23-1.64c0-1.67,0-3.33,0-5
				c-7.04,0.68-14.16,0.53-21.15-0.57c0,1.61,0,3.21,0,4.82c11.88-2.22,24.03-2.25,36.07-2.3c0-1.67,0-3.33,0-5
				c-11.32,0.56-22.65,1.13-33.97,1.69c-3.2,0.16-3.24,4.95,0,5c12.12,0.17,24.24,0.34,36.36,0.51c-0.22-1.64-0.44-3.27-0.66-4.91
				c-7.74,2.76-15.79,4.46-23.99,4.99c0.22,1.64,0.44,3.27,0.66,4.91c13.59-3.55,27.53-5.47,41.58-5.71
				c-0.22-1.64-0.44-3.27-0.66-4.91c-13.44,2.38-27.1,3.31-40.74,2.87c0.42,1.55,0.84,3.11,1.26,4.66
				c4.61-1.97,9.86-1.98,14.78-2.21c5.67-0.26,11.34-0.44,17.02-0.54c0-1.67,0-3.33,0-5c-12.99,1.17-26,1.96-39.03,2.39
				c-3.21,0.11-3.23,5.03,0,5c6.31-0.07,12.63-0.14,18.94-0.2c0-1.67,0-3.33,0-5c-6.77,0.47-13.55,0.36-20.3-0.32
				c-1.35-0.14-2.5,1.25-2.5,2.5C178.76,97.79,179.91,98.69,181.26,98.82L181.26,98.82z"/>
		</g>
	</g>
	<g>
		<g>
			<path class="st15" d="M277.02,84.54c-0.52-0.23-0.83-0.38-1.41-0.39c-0.5-0.01-0.96,0.12-1.4,0.36
				c-0.51,0.29-0.93,0.73-1.21,1.24c-0.49,0.91-0.48,1.85-0.39,2.85c0.16,1.61,0.31,3.22,0.47,4.82c0.06,0.65,0.23,1.31,0.73,1.77
				c0.41,0.38,0.88,0.61,1.44,0.69c1.25,0.17,2.37-0.59,2.74-1.79c0.22-0.7,0.43-1.39,0.65-2.09c-1.52,0.2-3.05,0.4-4.57,0.6
				c0.02,0.04,0.03,0.08,0.05,0.11c-0.08-0.2-0.17-0.4-0.25-0.6c0.11,0.27,0.18,0.54,0.23,0.83c-0.03-0.22-0.06-0.44-0.09-0.66
				c0.03,0.29,0.03,0.57,0,0.86c0.03-0.22,0.06-0.44,0.09-0.66c-0.04,0.29-0.12,0.56-0.22,0.83c0.08-0.2,0.17-0.4,0.25-0.6
				c-0.07,0.15-0.14,0.3-0.23,0.44c-0.67,1.13-0.29,2.79,0.9,3.42c1.21,0.64,2.71,0.3,3.42-0.9c0.51-0.86,0.76-1.79,0.81-2.78
				c0.06-1-0.24-1.93-0.64-2.83c-0.16-0.35-0.57-0.71-0.9-0.9c-0.49-0.28-1.04-0.37-1.59-0.3c-1,0.13-1.78,0.83-2.08,1.79
				c-0.22,0.7-0.43,1.39-0.65,2.09c1.64,0.22,3.27,0.44,4.91,0.66c-0.1-1.02-0.2-2.04-0.3-3.06c-0.05-0.49-0.09-0.97-0.14-1.46
				c-0.04-0.47-0.14-0.96-0.11-1.43c-0.03,0.22-0.06,0.44-0.09,0.66c0.02-0.16,0.06-0.31,0.12-0.46c-0.08,0.2-0.17,0.4-0.25,0.6
				c0.04-0.08,0.08-0.15,0.14-0.22c-0.13,0.17-0.26,0.34-0.39,0.51c0.02-0.02,0.04-0.04,0.05-0.05c-0.17,0.13-0.34,0.26-0.51,0.39
				c0.04-0.03,0.08-0.06,0.12-0.07c-0.2,0.08-0.4,0.17-0.6,0.25c0.02-0.01,0.04-0.01,0.07-0.02c-0.22,0.03-0.44,0.06-0.66,0.09
				c0.02,0,0.05,0,0.07,0c-0.22-0.03-0.44-0.06-0.66-0.09c0.02,0.01,0.05,0.01,0.07,0.02c-0.2-0.08-0.4-0.17-0.6-0.25
				c0.03,0.01,0.05,0.02,0.08,0.03c0.63,0.28,1.23,0.44,1.93,0.25c0.58-0.16,1.21-0.61,1.49-1.15c0.31-0.58,0.46-1.28,0.25-1.93
				C277.98,85.45,277.61,84.8,277.02,84.54L277.02,84.54z"/>
		</g>
	</g>
	<g>
		<g>
			<path class="st15" d="M274.66,96.8c0.13,0.58,0.23,1.17,0.31,1.75c-0.03-0.22-0.06-0.44-0.09-0.66c0.19,1.46,0.23,2.92,0.12,4.39
				c-0.05,0.61,0.31,1.35,0.73,1.77c0.43,0.43,1.15,0.76,1.77,0.73c0.65-0.03,1.32-0.24,1.77-0.73c0.47-0.51,0.68-1.08,0.73-1.77
				c0.17-2.28-0.03-4.58-0.52-6.81c-0.13-0.59-0.64-1.19-1.15-1.49c-0.54-0.31-1.33-0.45-1.93-0.25
				C275.05,94.16,274.36,95.43,274.66,96.8L274.66,96.8z"/>
		</g>
	</g>
	<text transform="matrix(0.8923 0 0 1 168.8633 99.583)" class="st16 st17 st18">Welcome to</text>
</g>
</svg>
