<?xml version="1.0" standalone="no"?>
<!DOCTYPE svg PUBLIC "-//W3C//DTD SVG 20010904//EN"
 "http://www.w3.org/TR/2001/REC-SVG-20010904/DTD/svg10.dtd">
<svg version="1.0" xmlns="http://www.w3.org/2000/svg"
 width="361.000000pt" height="361.000000pt" viewBox="0 0 361.000000 361.000000"
 preserveAspectRatio="xMidYMid meet">
<metadata>
Created by potrace 1.14, written by Peter Selinger 2001-2017
</metadata>
<g transform="translate(0.000000,361.000000) scale(0.100000,-0.100000)"
fill="#000000" stroke="none">
<path d="M2588 3591 c-13 -11 -44 -29 -68 -42 -55 -28 -186 -114 -220 -144
-14 -12 -164 -116 -335 -230 -170 -115 -363 -245 -428 -289 l-119 -80 -96 -3
c-54 -2 -188 -4 -299 -6 -112 -2 -206 -6 -210 -10 -4 -4 -5 -60 -4 -125 2 -64
4 -148 5 -187 2 -82 10 -74 -150 -176 -66 -42 -171 -110 -234 -151 -63 -41
-166 -106 -229 -144 -62 -38 -117 -78 -121 -88 -16 -44 19 -84 63 -72 12 3 67
35 122 70 55 35 141 90 190 122 50 32 146 94 215 139 69 45 130 84 137 88 8 5
12 -30 12 -137 2 -143 1 -144 -22 -153 -13 -4 -48 -29 -78 -55 -74 -64 -288
-240 -383 -313 -79 -62 -96 -88 -76 -124 22 -42 60 -27 177 66 108 87 324 263
333 273 3 3 15 13 27 23 l22 19 0 -49 c-1 -26 1 -156 3 -289 3 -258 4 -261 57
-288 33 -17 123 -29 221 -30 43 -1 85 -7 99 -15 23 -13 145 -17 196 -7 87 16
347 23 485 11 68 -6 100 -3 160 12 73 19 211 23 310 10 21 -3 60 4 95 15 54
18 84 20 285 20 124 -1 245 -2 270 -3 25 -1 59 1 75 4 17 3 57 8 90 11 33 4
83 17 110 30 28 13 68 27 89 31 54 9 120 56 142 102 32 67 30 141 -5 246 -35
105 -36 148 -5 255 18 63 18 64 -2 100 -14 24 -19 44 -14 57 4 11 5 45 2 75
-10 103 -4 284 13 369 2 10 6 70 10 135 l7 118 -28 29 -28 29 -335 -6 c-185
-3 -340 -8 -345 -11 -5 -3 -7 0 -4 7 2 7 87 56 189 109 101 53 200 106 219
117 19 12 64 36 98 54 70 36 91 65 73 98 -18 34 -47 36 -104 7 -79 -41 -210
-112 -327 -175 -58 -32 -143 -78 -190 -103 -47 -24 -115 -61 -152 -80 l-66
-36 -144 -1 c-131 -1 -408 -6 -618 -10 -128 -2 -127 -2 -110 14 30 27 689 469
750 503 25 13 70 42 100 64 30 22 78 55 105 74 80 55 85 60 85 93 0 50 -48 67
-92 33z"/>
</g>
</svg>
